<svg xmlns="http://www.w3.org/2000/svg" xmlns:xlink="http://www.w3.org/1999/xlink" width="140" height="140" viewBox="0 0 140 140" fill="none"><g opacity="1" transform="translate(0 0)  rotate(0 70 70)"><path id="圆形 2" fill-rule="evenodd" style="fill:#E27881" transform="translate(0 0)  rotate(0 70 70)" opacity="1" d="M70,0C31.34,0 0,31.34 0,70C0,108.66 31.34,140 70,140C108.66,140 140,108.66 140,70C140,31.34 108.66,0 70,0Z " /><path id="圆形 3" fill-rule="evenodd" style="fill:#F1E4A5" transform="translate(16 0)  rotate(0 54.5 54.5)" opacity="1" d="M54.5,0C24.4,0 0,24.4 0,54.5C0,84.6 24.4,109 54.5,109C84.6,109 109,84.6 109,54.5C109,24.4 84.6,0 54.5,0Z " /><path id="圆形 3" fill-rule="evenodd" style="fill:#E27881" transform="translate(26 0)  rotate(0 45 45)" opacity="1" d="M45,0C20.15,0 0,20.15 0,45C0,69.85 20.15,90 45,90C69.85,90 90,69.85 90,45C90,20.15 69.85,0 45,0Z " /><path id="圆形 3" fill-rule="evenodd" style="fill:#F1E4A5" transform="translate(43 0)  rotate(0 28 28)" opacity="1" d="M28,0C12.54,0 0,12.54 0,28C0,43.46 12.54,56 28,56C43.46,56 56,43.46 56,28C56,12.54 43.46,0 28,0Z " /></g></svg>