<svg xmlns="http://www.w3.org/2000/svg" xmlns:xlink="http://www.w3.org/1999/xlink" width="127" height="127" viewBox="0 0 127 127" fill="none"><g opacity="1" transform="translate(18.589676766392813 18.59124842166625)  rotate(-135 44.87405300614692 44.87405300614689)"><path  id="圆形 1" style="stroke:#000000; stroke-width:2; stroke-opacity:1; stroke-dasharray:0 0" transform="translate(9.478815354193742 34.50152149145032)  rotate(-45 22.88388458332486 22.88388458332486)" d="M22.88,0C10.25,0 0,10.25 0,22.88C0,35.52 10.25,45.77 22.88,45.77C35.52,45.77 45.77,35.52 45.77,22.88C45.77,10.25 35.52,0 22.88,0Z " /><path  id="圆形 1" style="stroke:#000000; stroke-width:2; stroke-opacity:1; stroke-dasharray:0 0" transform="translate(18.48698956360618 25.49334728203793)  rotate(-45 22.88388458332486 22.88388458332486)" d="M22.88,0C10.25,0 0,10.25 0,22.88C0,35.52 10.25,45.77 22.88,45.77C35.52,45.77 45.77,35.52 45.77,22.88C45.77,10.25 35.52,0 22.88,0Z " /><path  id="圆形 1" style="stroke:#000000; stroke-width:2; stroke-opacity:1; stroke-dasharray:0 0" transform="translate(27.161527691188468 16.818809154455646)  rotate(-45 22.88388458332486 22.88388458332486)" d="M22.88,0C10.25,0 0,10.25 0,22.88C0,35.52 10.25,45.77 22.88,45.77C35.52,45.77 45.77,35.52 45.77,22.88C45.77,10.25 35.52,0 22.88,0Z " /><path  id="圆形 1" style="stroke:#000000; stroke-width:2; stroke-opacity:1; stroke-dasharray:0 0" transform="translate(34.5015214914504 9.478815354193726)  rotate(-45 22.88388458332486 22.88388458332486)" d="M22.88,0C10.25,0 0,10.25 0,22.88C0,35.52 10.25,45.77 22.88,45.77C35.52,45.77 45.77,35.52 45.77,22.88C45.77,10.25 35.52,0 22.88,0Z " /></g></svg>