<?xml version="1.0" encoding="utf-8"?>
<!-- Generator: Adobe Illustrator 25.3.1, SVG Export Plug-In . SVG Version: 6.00 Build 0)  -->
<svg version="1.1" id="图层_1" xmlns="http://www.w3.org/2000/svg" xmlns:xlink="http://www.w3.org/1999/xlink" x="0px" y="0px"
	 viewBox="0 0 288 369" style="enable-background:new 0 0 288 369;" xml:space="preserve">
<style type="text/css">
	.st0{enable-background:new    ;}
	.st1{fill:#CD4D5B;}
	.st2{fill-rule:evenodd;clip-rule:evenodd;fill:#CD4D5B;}
</style>
<g transform="translate(0 0)  rotate(0 144 184.5)">
	<g transform="translate(0 0)  rotate(0 144 184.5)">
		<g transform="translate(6 166)  rotate(0 53.5 97)">
			<g class="st0">
				<path class="st1" d="M10.1,155V38.6H56c8.8,0,16.3,1.6,22.5,4.7c6.2,3.1,11,7.5,14.3,13.2c3.3,5.7,4.9,12.4,4.9,20.1
					c0,7.7-1.7,14.4-5,19.9c-3.3,5.5-8.2,9.8-14.5,12.8c-6.3,3-13.9,4.4-22.9,4.4H24.7V94h26.8c4.7,0,8.6-0.6,11.7-1.9
					c3.1-1.3,5.4-3.2,7-5.8c1.5-2.6,2.3-5.8,2.3-9.6c0-3.9-0.8-7.1-2.3-9.8c-1.5-2.7-3.9-4.7-7-6.1s-7.1-2.1-11.8-2.1H34.7V155H10.1
					z M73,102l28.9,53H74.7l-28.3-53H73z"/>
			</g>
		</g>
		<g transform="translate(0 0)  rotate(0 59 97)">
			<g class="st0">
				<path class="st1" d="M51.4,155H10.1V38.6h41.6c11.7,0,21.8,2.3,30.2,7c8.4,4.6,15,11.3,19.5,20c4.6,8.7,6.8,19.1,6.8,31.1
					c0,12.1-2.3,22.5-6.8,31.2c-4.6,8.7-11.1,15.4-19.6,20.1C73.3,152.7,63.2,155,51.4,155z M34.7,133.9h15.6
					c7.3,0,13.4-1.3,18.4-3.9c5-2.6,8.7-6.6,11.2-12.1c2.5-5.5,3.8-12.5,3.8-21.2c0-8.6-1.3-15.6-3.8-21.1c-2.5-5.5-6.3-9.5-11.2-12
					c-5-2.6-11.1-3.9-18.4-3.9H34.7V133.9z"/>
			</g>
		</g>
		<g transform="translate(180 0)  rotate(0 54 97)">
			<g class="st0">
				<path class="st1" d="M52.4,156.6c-8.5,0-16-1.5-22.6-4.4s-11.8-7-15.6-12.2c-3.8-5.2-5.8-11.1-5.9-17.9h24.8
					c0.2,2.8,1.1,5.3,2.8,7.5c1.7,2.1,4,3.8,6.9,5c2.9,1.2,6.1,1.8,9.7,1.8c3.8,0,7.1-0.7,9.9-2c2.9-1.3,5.1-3.2,6.8-5.5
					c1.6-2.3,2.4-5.1,2.4-8.1c0-3.1-0.9-5.9-2.6-8.3c-1.7-2.4-4.2-4.3-7.4-5.7c-3.2-1.4-7-2-11.4-2H39.4V86.6h10.9
					c3.7,0,7-0.6,9.9-1.9c2.9-1.3,5.1-3.1,6.7-5.4c1.6-2.3,2.4-5,2.4-8c0-2.9-0.7-5.5-2.1-7.7c-1.4-2.2-3.3-3.9-5.8-5.2
					c-2.5-1.2-5.4-1.9-8.7-1.9c-3.3,0-6.4,0.6-9.1,1.8c-2.8,1.2-5,2.9-6.6,5.1c-1.7,2.2-2.6,4.8-2.7,7.7H10.6
					c0.1-6.7,2-12.6,5.7-17.7s8.7-9.1,15-12c6.3-2.9,13.4-4.3,21.4-4.3c8,0,15.1,1.5,21.1,4.4c6,2.9,10.7,6.8,14.1,11.8
					c3.4,4.9,5,10.5,5,16.6c0,6.5-2,12-6.1,16.3c-4.1,4.4-9.4,7.1-15.9,8.3v0.9c8.6,1.1,15.1,4.1,19.6,8.9
					c4.5,4.8,6.7,10.9,6.7,18.1c0,6.6-1.9,12.5-5.7,17.7c-3.8,5.2-9.1,9.2-15.9,12.2C68.9,155.1,61.2,156.6,52.4,156.6z"/>
			</g>
		</g>
		<g transform="translate(170 175)  rotate(0 56.5 97)">
			<g class="st0">
				<path class="st1" d="M7.7,134.5v-19.4l48.6-76.5H73v26.8h-9.9l-30.6,48.5v0.9h69v19.7H7.7z M63.5,155v-26.4l0.5-8.6V38.6H87V155
					H63.5z"/>
			</g>
		</g>
	</g>
	<g id="圆形_4">
		<path class="st2" d="M155.5,164c-11.3,0-20.5,9.2-20.5,20.5c0,11.3,9.2,20.5,20.5,20.5s20.5-9.2,20.5-20.5
			C176,173.2,166.8,164,155.5,164z"/>
	</g>
</g>
</svg>
