<?xml version="1.0" standalone="no"?><!DOCTYPE svg PUBLIC "-//W3C//DTD SVG 1.1//EN" "http://www.w3.org/Graphics/SVG/1.1/DTD/svg11.dtd"><svg t="1677232120475" class="icon" viewBox="0 0 1024 1024" version="1.1" xmlns="http://www.w3.org/2000/svg" p-id="2811" xmlns:xlink="http://www.w3.org/1999/xlink" width="200" height="200"><path d="M1018.697143 902.582857L545.462857 82.834286a38.582857 38.582857 0 0 0-66.925714 0L5.302857 902.582857a38.582857 38.582857 0 0 0 33.28 57.965714h946.834286a38.582857 38.582857 0 0 0 33.28-57.965714zM486.4 361.325714h51.2a25.234286 25.234286 0 0 1 25.051429 27.428572L536.868571 658.285714a25.051429 25.051429 0 0 1-49.92 0l-25.6-268.8a25.051429 25.051429 0 0 1 25.051429-28.16z m78.811429 436.48a19.2 19.2 0 0 1-19.382858 18.285715h-67.657142a19.2 19.2 0 0 1-19.382858-18.285715v-52.48a19.2 19.2 0 0 1 19.382858-19.382857h67.657142a19.2 19.2 0 0 1 19.382858 19.382857z" fill="#CD4D5B" p-id="2812"></path></svg>