<svg xmlns="http://www.w3.org/2000/svg" xmlns:xlink="http://www.w3.org/1999/xlink" width="150" height="150" viewBox="0 0 150 150" fill="none"><g opacity="1" transform="translate(0.00274658203125 0)  rotate(0 74.5 74.5)"><path id="分组 2" fill-rule="evenodd" style="fill:#E27881" transform="translate(0 0)  rotate(0 74.5 74.5)" opacity="1" d="M73.93 149C75.01 149.04 80.85 148.73 82.71 148.52C96.16 147.06 108.68 142.17 119.3 134.27C132.02 124.79 141.41 111.32 145.88 96.1C150.76 79.59 149.89 61.84 143.43 45.84C136.72 29.25 123.71 15.37 107.48 7.53C98.01 2.95 88.53 0.58 77.63 0.08C66.88 -0.42 55.99 1.47 45.8 5.58C29.24 12.27 15.35 25.3 7.52 41.5C2.92 51.01 0.55 60.49 0.07 71.36C-0.56 85.49 2.92 99.91 9.84 111.89C22.56 133.93 45.39 147.74 70.97 148.87C72.32 148.93 73.66 149 73.93 149Z M66.5986 137.14C66.8786 137.2 67.1986 137.25 67.3186 137.28C67.4286 137.29 67.8186 137.32 68.1986 137.34L68.8586 137.35L68.8586 124.05C68.8586 111.46 68.8486 110.75 68.6186 110.82C68.4786 110.85 67.9886 110.92 67.5286 110.98C65.8686 111.15 61.7186 111.92 59.4486 112.47C56.9586 113.06 53.2286 114.12 53.0786 114.27C53.0186 114.31 53.3386 115.14 53.7886 116.11C56.6086 122.23 60.5086 129.01 64.5986 134.92C65.9786 136.9 66.1286 137.07 66.5986 137.14Z M80.5774 110.87L80.1174 110.81L80.1174 124.1L80.1174 137.39L81.2474 137.29C81.8574 137.25 82.4774 137.15 82.6374 137.1C83.2874 136.86 88.2174 129.29 91.1474 124.06C92.1874 122.22 95.2174 116.2 95.6974 115.03L95.9974 114.3L94.6374 113.85C90.6674 112.58 85.0974 111.4 80.5774 110.87Z M43.5891 120.093C43.2091 119.223 42.8291 118.503 42.7291 118.503C42.3291 118.503 35.7291 122.033 34.2091 123.073C33.9691 123.243 34.0991 123.373 35.3991 124.413C37.1491 125.793 40.6391 128.123 42.7591 129.343C44.9291 130.583 49.5891 132.793 50.1091 132.833C50.1891 132.853 49.7391 131.953 49.0791 130.853C47.7691 128.633 44.6591 122.543 43.5891 120.093Z M114.556 123.613L115.036 123.213L113.016 122.023C110.886 120.763 106.526 118.503 106.246 118.503C106.146 118.503 105.726 119.273 105.316 120.233C103.826 123.623 100.986 129.103 99.2662 131.903C98.9562 132.423 98.7562 132.853 98.8262 132.853C98.9162 132.853 99.9162 132.443 101.056 131.933C105.566 129.953 111.256 126.453 114.556 123.613Z M34.8256 110.356L38.9956 108.296L38.7256 107.586C37.6656 104.856 35.5456 97.3461 34.5856 93.0361C33.6156 88.5561 33.1356 85.5961 32.6356 80.9261L32.5456 80.1061L22.1456 80.1061L11.7656 80.1061L11.8256 80.6361C12.5556 87.6561 13.7956 92.9361 16.0256 98.6061C17.7756 103.016 19.4456 106.206 22.0756 110.136C23.3856 112.086 25.7656 115.266 25.9056 115.266C25.9156 115.266 27.0056 114.636 28.2956 113.846C29.5956 113.076 32.5356 111.496 34.8256 110.356Z M116.202 82.2561C115.422 89.3761 113.392 98.2261 110.692 106.256L110.002 108.296L114.292 110.446C116.672 111.626 119.582 113.186 120.782 113.916C121.972 114.646 123.002 115.236 123.042 115.226C123.102 115.216 123.552 114.696 124.042 114.076C131.202 105.146 136.032 93.1261 137.032 81.7261C137.072 81.1861 137.142 80.5961 137.182 80.4261L137.242 80.1061L126.832 80.1061C121.102 80.1061 116.422 80.1361 116.422 80.1761C116.422 80.2161 116.322 81.1561 116.202 82.2561Z M47.6888 99.8561C48.3788 102.066 49.1488 104.296 49.2388 104.296C49.2588 104.296 50.0488 104.016 50.9788 103.666C56.3988 101.656 62.9288 100.036 68.0588 99.4461L68.8588 99.3561L68.8588 89.7261L68.8588 80.1061L56.3288 80.1061L43.7888 80.1061L43.8888 81.2061C44.3788 86.8161 45.8188 93.8161 47.6888 99.8561Z M86.1274 100.286C89.7374 101.016 94.6274 102.396 97.9274 103.646C98.8474 104.006 99.6474 104.286 99.7074 104.286C99.7474 104.296 99.9874 103.746 100.237 103.076C102.517 96.7861 104.517 87.7961 105.087 81.2061L105.187 80.1061L92.6574 80.1061L80.1174 80.1061L80.1174 89.7361C80.1174 97.3461 80.1574 99.3761 80.2974 99.3761C80.7774 99.3861 84.5374 99.9661 86.1274 100.286Z M17.6856 46.4878C14.4856 53.2978 12.6956 59.9478 11.8256 68.3378L11.7656 68.8577L22.1456 68.8577L32.5156 68.8577L32.6156 67.5578C33.1056 61.0378 34.9856 52.4777 37.7056 44.2578C38.3556 42.2878 38.8656 40.6577 38.8456 40.6278C38.8256 40.5977 36.9656 39.6677 34.7256 38.5578C32.4956 37.4377 29.5956 35.8877 28.2856 35.0977L25.9056 33.6777L25.5656 34.0677C22.7556 37.4777 19.5856 42.4577 17.6856 46.4878Z M68.857 59.2225C68.857 53.1125 68.807 49.5825 68.717 49.5825C68.647 49.5825 67.877 49.4825 67.007 49.3725C62.127 48.7025 56.707 47.3525 51.607 45.5025C50.317 45.0425 49.237 44.6625 49.217 44.6625C49.117 44.6625 47.457 49.9325 46.857 52.1425C45.797 55.9725 45.177 58.8425 44.587 62.4525C44.277 64.4425 43.817 68.0525 43.817 68.6125C43.817 68.8425 44.507 68.8525 56.337 68.8525L68.857 68.8525L68.857 59.2225Z M80.8674 49.5125L80.1174 49.6125L80.1174 59.2325L80.1174 68.8525L92.6374 68.8525C104.477 68.8525 105.157 68.8425 105.157 68.6125C105.157 68.1225 104.727 64.5325 104.447 62.8025C103.877 59.1825 102.857 54.6025 101.767 50.8525C101.267 49.0925 99.8174 44.6625 99.7574 44.6625C99.7274 44.6625 98.7274 45.0125 97.5474 45.4525C92.2174 47.3725 86.2074 48.8525 80.8674 49.5125Z M120.697 35.0946C119.387 35.8846 116.487 37.4346 114.247 38.5546C112.017 39.6646 110.157 40.6146 110.127 40.6446C110.097 40.6646 110.457 41.8246 110.927 43.2046C113.687 51.2146 115.687 60.1246 116.307 66.9946L116.457 68.8546L126.847 68.8546L137.227 68.8546L137.157 68.4046C137.127 68.1546 137.007 67.0546 136.877 65.9746C135.867 56.9646 132.657 47.8646 127.857 40.2746C126.417 38.0146 124.477 35.3246 123.157 33.7946C123.117 33.7246 121.987 34.3146 120.697 35.0946Z M67.7317 11.6677C67.1217 11.7077 66.4717 11.8077 66.3017 11.8777C65.7217 12.0977 62.1517 17.4477 59.6017 21.8777C57.2817 25.9177 53.6417 33.2877 53.3117 34.5777C53.2317 34.8977 53.3017 34.9277 55.0317 35.4177C59.0817 36.5577 62.4317 37.2877 65.9117 37.7677C67.7517 38.0277 68.4517 38.1177 68.7617 38.1777C68.8217 38.1777 68.8617 32.1977 68.8617 24.8877L68.8617 11.5677L67.7317 11.6677Z M83.0674 37.7677C86.5574 37.2777 89.9074 36.5577 93.9474 35.4177C94.9374 35.1377 95.7374 34.8577 95.7374 34.7777C95.7374 34.1277 91.5374 25.6277 89.3474 21.8177C86.6274 17.1377 83.1574 11.9877 82.6074 11.8377C82.4374 11.7977 81.8074 11.7077 81.2174 11.6677L80.1174 11.5677L80.1174 24.8777L80.1174 38.1777L80.5774 38.1077C80.8174 38.0777 81.9474 37.9277 83.0674 37.7677Z M49.4761 17.6043C49.9261 16.8443 50.2761 16.1943 50.2561 16.1643C50.1761 16.0943 46.9561 17.4843 45.2261 18.3443C44.2561 18.8343 42.5261 19.7943 41.3561 20.4843C38.2461 22.3443 33.8161 25.5743 34.0661 25.8343C34.5761 26.3243 42.5761 30.7243 42.9761 30.7243C43.0161 30.7343 43.3261 30.0443 43.6661 29.2143C45.1861 25.5643 47.4361 21.0343 49.4761 17.6043Z M114.907 25.8333C115.147 25.5933 110.567 22.2333 107.607 20.4733C106.587 19.8533 104.907 18.9333 103.867 18.4133C102.067 17.5033 98.7975 16.0833 98.7175 16.1633C98.7075 16.1933 99.0575 16.8433 99.5075 17.6033C101.457 20.9033 103.867 25.6933 105.317 29.2233C105.657 30.0533 105.947 30.7333 105.977 30.7333C106.007 30.7333 107.147 30.1733 108.507 29.4833C110.667 28.3933 114.577 26.1633 114.907 25.8333Z " /></g></svg>