<svg xmlns="http://www.w3.org/2000/svg" xmlns:xlink="http://www.w3.org/1999/xlink" width="309" height="146" viewBox="0 0 309 146" fill="none"><g opacity="1" transform="translate(0 0)  rotate(0 154.44 73)"><g opacity="1" transform="translate(0 0)  rotate(0 154.44 47)"><path id="文本 1" fill-rule="evenodd" style="fill:#CD4D5B" transform="translate(0 21.72)  rotate(0 154.44 21.24)" opacity="1" d="M0 0L2.16 0L2.16 42.48L0 42.48L0 0ZM6.48 42.48L6.48 0L4.32 0L4.32 42.48L6.48 42.48ZM8.64 0L15.12 0L15.12 42.48L8.64 42.48L8.64 0ZM23.76 42.48L23.76 0L21.6 0L21.6 42.48L23.76 42.48ZM25.92 42.48L25.92 0L32.4 0L32.4 42.48L25.92 42.48ZM34.56 42.48L41.04 42.48L41.04 0L34.56 0L34.56 42.48ZM45.36 0L45.36 42.48L43.2 42.48L43.2 0L45.36 0ZM47.52 0L47.52 42.48L54 42.48L54 0L47.52 0ZM62.64 42.48L60.48 42.48L60.48 0L62.64 0L62.64 42.48ZM64.8 0L66.96 0L66.96 42.48L64.8 42.48L64.8 0ZM69.12 0L69.12 42.48L75.6 42.48L75.6 0L69.12 0ZM77.76 42.48L79.92 42.48L79.92 0L77.76 0L77.76 42.48ZM82.08 42.48L82.08 0L84.24 0L84.24 42.48L82.08 42.48ZM92.88 0L90.72 0L90.72 42.48L92.88 42.48L92.88 0ZM101.52 0L101.52 42.48L95.04 42.48L95.04 0L101.52 0ZM103.68 42.48L105.84 42.48L105.84 0L103.68 0L103.68 42.48ZM108 0L108 42.48L110.16 42.48L110.16 0L108 0ZM112.32 0L112.32 42.48L118.8 42.48L118.8 0L112.32 0ZM127.44 42.48L125.28 42.48L125.28 0L127.44 0L127.44 42.48ZM129.6 0L136.08 0L136.08 42.48L129.6 42.48L129.6 0ZM144.72 42.48L144.72 0L138.24 0L138.24 42.48L144.72 42.48ZM149.04 0L146.88 0L146.88 42.48L149.04 42.48L149.04 0ZM153.36 42.48L151.2 42.48L151.2 0L153.36 0L153.36 42.48ZM162 42.48L155.52 42.48L155.52 0L162 0L162 42.48ZM170.64 0L168.48 0L168.48 42.48L170.64 42.48L170.64 0ZM172.8 0L179.28 0L179.28 42.48L172.8 42.48L172.8 0ZM181.44 42.48L181.44 0L183.6 0L183.6 42.48L181.44 42.48ZM187.92 0L185.76 0L185.76 42.48L187.92 42.48L187.92 0ZM196.56 0L194.4 0L194.4 42.48L196.56 42.48L196.56 0ZM198.72 0L205.2 0L205.2 42.48L198.72 42.48L198.72 0ZM207.36 0L207.36 42.48L209.52 42.48L209.52 0L207.36 0ZM218.16 0L218.16 42.48L211.68 42.48L211.68 0L218.16 0ZM222.48 0L222.48 42.48L220.32 42.48L220.32 0L222.48 0ZM228.96 42.48L231.12 42.48L231.12 0L228.96 0L228.96 42.48ZM233.28 0L233.28 42.48L239.76 42.48L239.76 0L233.28 0ZM244.08 0L241.92 0L241.92 42.48L244.08 42.48L244.08 0ZM252.72 42.48L252.72 0L246.24 0L246.24 42.48L252.72 42.48ZM254.88 0L257.04 0L257.04 42.48L254.88 42.48L254.88 0ZM263.52 0L263.52 42.48L265.68 42.48L265.68 0L263.52 0ZM274.32 0L274.32 42.48L267.84 42.48L267.84 0L274.32 0ZM276.48 0L276.48 42.48L278.64 42.48L278.64 0L276.48 0ZM280.8 42.48L280.8 0L287.28 0L287.28 42.48L280.8 42.48ZM291.6 0L291.6 42.48L289.44 42.48L289.44 0L291.6 0ZM298.08 42.48L304.56 42.48L304.56 0L298.08 0L298.08 42.48ZM306.72 42.48L306.72 0L308.88 0L308.88 42.48L306.72 42.48Z" /><g opacity="1" transform="translate(0 0)  rotate(0 65.5 7.5)"><text><tspan x="0" y="11.625" font-size="12" line-height="0" fill="#CD4D5B" opacity="1" font-family="Inter-Medium" letter-spacing="0"  >MODEL:</tspan><tspan x="46.05255681818182" y="11.625" font-size="12" line-height="0" fill="#CD4D5B" opacity="1" font-family="Inter-Medium" letter-spacing="0" > GT-D3R4-001</tspan></text></g><path id="矩形 1" fill-rule="evenodd" style="fill:#CD4D5B" transform="translate(144 76)  rotate(0 6.5 6.5)" opacity="1" d="M0,13L13,13L13,0L0,0L0,13Z " /><path id="矩形 1" fill-rule="evenodd" style="fill:#CD4D5B" transform="translate(0 76)  rotate(0 6.5 6.5)" opacity="1" d="M0,13L13,13L13,0L0,0L0,13Z " /><g opacity="1" transform="translate(21 72)  rotate(0 58 11)"><text><tspan x="0" y="17.4375" font-size="18" line-height="0" fill="#CD4D5B" opacity="1" font-family="Inter-SemiBold" letter-spacing="0" >DEADRABBIT</tspan></text></g></g><g opacity="1" transform="translate(58 108)  rotate(0 19 19)"><path id="分组 1" fill-rule="evenodd" style="fill:#CD4D5B" transform="translate(0 0)  rotate(0 19 19)" opacity="1" d="M19 38C21.56 38 24.05 37.5 26.4 36.51C28.66 35.55 30.69 34.18 32.43 32.43C34.18 30.69 35.55 28.66 36.51 26.4C37.5 24.05 38 21.56 38 19C38 16.44 37.5 13.95 36.51 11.6C35.55 9.34 34.18 7.31 32.43 5.56C30.69 3.82 28.66 2.45 26.4 1.49C24.05 0.5 21.56 0 19 0C16.44 0 13.95 0.5 11.6 1.49C9.34 2.45 7.31 3.82 5.56 5.56C3.82 7.31 2.45 9.34 1.49 11.6C0.5 13.95 0 16.44 0 19C0 21.56 0.5 24.05 1.49 26.4C2.45 28.66 3.82 30.69 5.56 32.43C7.31 34.18 9.34 35.55 11.6 36.51C13.95 37.5 16.44 38 19 38Z M2.99954 18.9995C2.99954 27.8195 10.1795 34.9995 18.9995 34.9995C27.8195 34.9995 34.9995 27.8195 34.9995 18.9995C34.9995 10.1795 27.8195 2.99954 18.9995 2.99954C10.1795 2.99954 2.99954 10.1795 2.99954 18.9995Z " /><path id="路径 3" fill-rule="evenodd" style="fill:#CD4D5B" transform="translate(16.049711180410267 15.999710522506875)  rotate(0 3.0000394742036076 3.0000394742036076)" opacity="1" d="M3,6C4.66,6 6,4.66 6,3C6,1.34 4.66,0 3,0C1.34,0 0,1.34 0,3C0,4.66 1.34,6 3,6Z " /><path id="分组 2" fill-rule="evenodd" style="fill:#CD4D5B" transform="translate(6.037079435255723 9.173120698956566)  rotate(0 12.995170989091962 11.28573834030711)" opacity="1" d="M0 8.68L7.84 9.31C7.97 7.97 8.62 6.8 9.58 5.99L4.48 -8.88178e-16C1.99 2.12 0.3 5.17 0 8.68Z M16.4122 5.99C17.3722 6.8 18.0222 7.97 18.1522 9.31L25.9922 8.68C25.6822 5.17 24.0022 2.12 21.5122 -8.88178e-16L16.4122 5.99Z M14.9641 14.3637C13.8041 14.8137 12.4641 14.8337 11.2241 14.3137L8.05411 21.5137C11.2841 22.9137 14.7741 22.8737 17.8141 21.6937L14.9641 14.3637Z " /></g><g opacity="1" transform="translate(109 109)  rotate(0 18.000000000000007 18.000000000000007)"><path id="路径 1" fill-rule="evenodd" style="fill:#CD4D5B" transform="translate(6.911684230002583 0)  rotate(0 11.308818683292468 7.453395022244607)" opacity="1" d="M20.31,12.31C20.86,11.57 22.15,9.5 22.46,8.86C22.66,8.44 22.67,8.07 22.48,7.88C22.4,7.79 22.35,7.78 22.15,7.79C21.85,7.79 21.45,7.96 20.77,8.36C20.14,8.74 20,8.79 19.88,8.72C19.78,8.65 19.71,8.53 18.57,6.49C17.33,4.28 16.95,3.64 16.35,2.82C15.53,1.7 14.79,1.06 13.66,0.49C13.1,0.2 12.75,0.09 12.29,0.03C11.97,0 10.26,-0.01 9.84,0.02C9.3,0.06 8.94,0.17 8.28,0.5C7.18,1.06 6.59,1.63 5.6,3.14C4.53,4.76 1.47,10.16 0.36,12.36C-0.05,13.19 -0.07,13.29 0.1,13.59C0.25,13.84 0.99,14.36 1.65,14.67C2.04,14.85 2.24,14.91 2.55,14.91C2.9,14.9 3.06,14.8 3.3,14.46C3.64,13.96 4.47,12.57 5.95,10C8.1,6.29 8.78,5.19 9.09,4.86C9.62,4.31 10.61,3.84 11.24,3.84C11.68,3.84 12.39,4.11 12.86,4.45C13.36,4.8 13.56,5.1 14.62,6.91C15.7,8.78 16.63,10.49 16.63,10.62C16.63,10.7 16.3,10.96 15.66,11.39C15.11,11.76 14.86,11.97 14.77,12.14C14.7,12.27 14.71,12.56 14.78,12.69C14.9,12.89 15.02,12.92 15.62,12.94C16.75,12.97 19.57,12.8 19.95,12.68C20.03,12.66 20.13,12.55 20.31,12.31Z " /><path id="路径 2" fill-rule="evenodd" style="fill:#CD4D5B" transform="translate(19.636693921760756 13.578721255485394)  rotate(0 8.181653039119633 11.21063937225731)" opacity="1" d="M7.81,4.08C7.97,4.37 8.43,5.18 8.83,5.9C11.86,11.17 12.45,12.37 12.45,13.21C12.45,13.62 12.29,14.21 12.07,14.57C11.91,14.85 11.57,15.21 11.29,15.41C11.03,15.6 10.61,15.8 10.36,15.86C9.83,15.99 8.27,16.06 5.6,16.06L3.43,16.06L3.41,15.06C3.4,13.99 3.37,13.77 3.19,13.5C3,13.21 2.63,13.22 2.35,13.52C2.11,13.78 1.83,14.28 0.88,16.17L0,17.92L0.34,18.59C1.57,20.97 2.11,21.94 2.33,22.16C2.57,22.41 2.89,22.49 3.15,22.37C3.26,22.31 3.3,22.25 3.37,22.07C3.39,22.03 3.41,21.47 3.42,20.83L3.44,19.66L6.58,19.64C8.44,19.63 9.89,19.6 10.14,19.58C11.03,19.49 11.54,19.4 12.04,19.23C12.36,19.13 13.1,18.79 13.38,18.62C14.35,18.03 15.3,17 15.81,15.96C16.4,14.78 16.55,12.48 16.11,11.34C15.95,10.93 15.23,9.5 14.7,8.56C14.18,7.63 11.57,3.02 11.02,2.09C10.34,0.91 9.86,0.22 9.61,0.07C9.45,-0.03 9.18,-0.02 8.91,0.1C8.39,0.33 7.62,0.78 7.27,1.06C6.88,1.36 6.74,1.71 6.83,2.07C6.89,2.29 7.44,3.43 7.81,4.08Z " /><path id="路径 3" fill-rule="evenodd" style="fill:#CD4D5B" transform="translate(14.333569164459913 15.31384047734519)  rotate(0 3.6576096292126636 4.837225316036538)" opacity="1" d="M0.37,2.68L0.37,5.37L0.47,5.37C0.52,5.37 0.86,5.3 1.21,5.23C1.83,5.1 1.88,5.09 2.6,5.09C3.2,5.09 3.42,5.1 3.67,5.15C4.23,5.28 4.58,5.51 4.76,5.88C4.85,6.06 4.86,6.13 4.86,6.42C4.86,6.71 4.84,6.79 4.76,6.96C4.62,7.23 4.32,7.52 4.05,7.62C3.47,7.84 2.5,7.87 1.83,7.69C1.43,7.57 0.85,7.35 0.53,7.16C0.37,7.07 0.25,7.03 0.15,7.03L0,7.03L0.01,8.07L0.02,9.12L0.24,9.21C0.55,9.34 1.35,9.53 1.86,9.61C2.41,9.69 3.69,9.7 4.16,9.62C5.49,9.42 6.49,8.77 6.96,7.8C7.06,7.59 7.17,7.31 7.21,7.18C7.42,6.31 7.31,5.31 6.93,4.71C6.78,4.48 6.44,4.13 6.25,3.99C6.04,3.85 5.66,3.67 5.37,3.58C4.76,3.39 4.49,3.35 3.53,3.35L2.64,3.35L2.64,2.58L2.64,1.81L4.84,1.81L7.04,1.81L7.04,0.91L7.04,0L3.7,0L0.37,0L0.37,2.68Z " /><path id="路径 4" fill-rule="evenodd" style="fill:#CD4D5B" transform="translate(0 15.575199559169173)  rotate(0 9.03528260248026 8.821654638058504)" opacity="1" d="M3.62,17.05C4.23,17.37 4.63,17.5 5.07,17.54C5.27,17.56 6.69,17.59 8.21,17.62C10.41,17.65 11.59,17.65 13.93,17.62C15.55,17.59 17.07,17.56 17.3,17.54C17.75,17.5 17.85,17.46 17.95,17.27C18.03,17.11 18.09,16.25 18.07,15.39C18.05,14.79 18.04,14.69 17.98,14.56C17.88,14.37 17.8,14.3 17.59,14.21C17.15,14.01 16.36,13.96 12.79,13.91C6.56,13.82 5.67,13.75 4.97,13.27C4.54,12.97 4.08,12.29 3.92,11.73C3.7,10.93 3.82,10.12 4.3,9.19C4.81,8.22 7.18,4.11 7.24,4.11C7.25,4.11 7.59,4.28 7.99,4.5C8.92,5 9.18,5.1 9.44,5.1C9.63,5.1 9.66,5.09 9.8,4.96L9.94,4.81L9.93,4.55C9.89,4.1 9.59,3.56 8.26,1.55C7.8,0.87 7.41,0.29 7.38,0.26C7.27,0.15 5.8,0.04 3.94,0.01C2.51,-0.01 2.51,-0.01 2.34,0.08C2.15,0.18 1.97,0.43 1.97,0.62C1.97,0.91 2.2,1.12 3.12,1.68C3.45,1.87 3.78,2.09 3.86,2.16C3.99,2.27 4,2.28 3.95,2.39C3.87,2.57 3.56,3.12 2.84,4.36C1.06,7.44 0.74,8.04 0.43,8.95C-0.31,11.12 -0.09,13.19 1.06,14.87C1.66,15.75 2.54,16.5 3.62,17.05Z " /></g><path id="分组 1" fill-rule="evenodd" style="fill:#CD4D5B" transform="translate(0 109.5)  rotate(0 22.5 17.5)" opacity="1" d="M0 30C0 32.76 2.24 35 5 35L40 35C42.76 35 45 32.76 45 30L45 5C45 2.24 42.76 0 40 0L5 0C2.24 0 0 2.24 0 5L0 30Z M18.4228 15C19.1128 15.77 20.2928 15.84 21.0728 15.15C21.8428 14.46 21.9028 13.27 21.2228 12.5C19.8528 10.97 17.8528 10 15.6328 10C11.4928 10 8.13281 13.36 8.13281 17.5C8.13281 21.64 11.4928 25 15.6328 25C17.8528 25 19.8528 24.03 21.2228 22.5C21.9028 21.73 21.8428 20.55 21.0728 19.85C20.2928 19.16 19.1128 19.23 18.4228 20C17.7328 20.77 16.7328 21.25 15.6228 21.25C13.5528 21.25 11.8728 19.57 11.8728 17.5C11.8728 15.43 13.5528 13.75 15.6228 13.75C16.7328 13.75 17.7328 14.23 18.4228 15Z M33.4228 15C34.1128 15.77 35.2928 15.84 36.0728 15.15C36.8428 14.46 36.9028 13.27 36.2228 12.5C34.8528 10.97 32.8528 10 30.6328 10C26.4928 10 23.1328 13.36 23.1328 17.5C23.1328 21.64 26.4928 25 30.6328 25C32.8528 25 34.8528 24.03 36.2228 22.5C36.9028 21.73 36.8428 20.55 36.0728 19.85C35.2928 19.16 34.1128 19.23 33.4228 20C32.7328 20.77 31.7328 21.25 30.6228 21.25C28.5528 21.25 26.8728 19.57 26.8728 17.5C26.8728 15.43 28.5528 13.75 30.6228 13.75C31.7328 13.75 32.7328 14.23 33.4228 15Z " /></g></svg>