<svg xmlns="http://www.w3.org/2000/svg" xmlns:xlink="http://www.w3.org/1999/xlink" width="253" height="122" viewBox="0 0 253 122" fill="none"><g opacity="1" transform="translate(-0.0000013871626833861228 0.0000014648437627329258)  rotate(0 126.46241477272729 60.68995454545454)"><path id="文本 1" fill-rule="evenodd" style="fill:#49EB97" transform="translate(2.785511363636374 0)  rotate(0 125.0696590909091 18.07915909090909)" opacity="1" d="M234.25 0L234.25 35.66L227.1 35.66L227.1 0L234.25 0ZM250.14 0L250.14 35.66L242.99 35.66L242.99 0L250.14 0ZM65.39 8.34C64.74 9.23 64.74 10.35 64.74 10.35C64.7 11.29 65.14 11.99 65.14 11.99C65.57 12.69 66.34 13.19 66.34 13.19C67.11 13.69 68.11 14.06 68.11 14.06C69.12 14.43 70.26 14.68 70.26 14.68L73.4 15.43C75.68 15.94 77.59 16.79 77.59 16.79C79.5 17.65 80.9 18.89 80.9 18.89C82.3 20.14 83.07 21.82 83.07 21.82C83.85 23.51 83.86 25.69 83.86 25.69C83.85 28.9 82.24 31.24 82.24 31.24C80.62 33.58 77.6 34.87 77.6 34.87C74.57 36.16 70.31 36.16 70.31 36.16C66.09 36.16 62.96 34.86 62.96 34.86C59.83 33.57 58.08 31.02 58.08 31.02C56.34 28.47 56.25 24.7 56.25 24.7L63.39 24.7C63.51 26.46 64.41 27.63 64.41 27.63C65.3 28.79 66.81 29.38 66.81 29.38C68.32 29.97 70.23 29.97 70.23 29.97C72.1 29.97 73.49 29.43 73.49 29.43C74.88 28.88 75.65 27.91 75.65 27.91C76.41 26.94 76.41 25.68 76.41 25.68C76.41 24.5 75.72 23.7 75.72 23.7C75.03 22.9 73.71 22.33 73.71 22.33C72.39 21.77 70.48 21.31 70.48 21.31L66.68 20.36C62.27 19.28 59.71 17 59.71 17C57.15 14.72 57.17 10.85 57.17 10.85C57.15 7.68 58.87 5.31 58.87 5.31C60.58 2.94 63.58 1.61 63.58 1.61C66.58 0.28 70.4 0.28 70.4 0.28C74.28 0.28 77.19 1.61 77.19 1.61C80.1 2.94 81.72 5.31 81.72 5.31C83.34 7.68 83.39 10.79 83.39 10.79L76.31 10.79C76.11 8.73 74.56 7.59 74.56 7.59C73.01 6.45 70.35 6.45 70.35 6.45C68.54 6.45 67.3 6.95 67.3 6.95C66.05 7.45 65.39 8.34 65.39 8.34ZM101.66 29.97C101.66 29.97 99.75 29.97 98.24 29.38C98.24 29.38 96.73 28.79 95.84 27.63C95.84 27.63 94.94 26.46 94.82 24.7L87.68 24.7C87.68 24.7 87.77 28.47 89.51 31.02C89.51 31.02 91.26 33.57 94.39 34.86C94.39 34.86 97.52 36.16 101.74 36.16C101.74 36.16 106.01 36.16 109.03 34.87C109.03 34.87 112.06 33.58 113.67 31.24C113.67 31.24 115.28 28.9 115.3 25.69C115.3 25.69 115.28 23.51 114.5 21.82C114.5 21.82 113.73 20.14 112.33 18.89C112.33 18.89 110.93 17.65 109.02 16.79C109.02 16.79 107.11 15.94 104.83 15.43L101.69 14.68C101.69 14.68 100.55 14.43 99.55 14.06C99.55 14.06 98.54 13.69 97.77 13.19C97.77 13.19 97.01 12.69 96.57 11.99C96.57 11.99 96.14 11.29 96.17 10.35C96.17 10.35 96.17 9.23 96.83 8.34C96.83 8.34 97.48 7.45 98.73 6.95C98.73 6.95 99.97 6.45 101.78 6.45C101.78 6.45 104.44 6.45 105.99 7.59C105.99 7.59 107.54 8.73 107.74 10.79L114.82 10.79C114.82 10.79 114.77 7.68 113.15 5.31C113.15 5.31 111.53 2.94 108.62 1.61C108.62 1.61 105.72 0.28 101.83 0.28C101.83 0.28 98.01 0.28 95.01 1.61C95.01 1.61 92.01 2.94 90.3 5.31C90.3 5.31 88.59 7.68 88.6 10.85C88.6 10.85 88.59 14.72 91.14 17C91.14 17 93.7 19.28 98.11 20.36L101.91 21.31C101.91 21.31 103.82 21.77 105.14 22.33C105.14 22.33 106.47 22.9 107.16 23.7C107.16 23.7 107.85 24.5 107.85 25.68C107.85 25.68 107.85 26.94 107.08 27.91C107.08 27.91 106.31 28.88 104.92 29.43C104.92 29.43 103.53 29.97 101.66 29.97ZM157.76 2.38C161.47 4.49 163.63 8.49 163.63 8.49C165.78 12.5 165.78 18.21 165.78 18.21C165.78 23.92 163.63 27.93 163.63 27.93C161.47 31.93 157.76 34.04 157.76 34.04C154.06 36.14 149.44 36.14 149.44 36.14C144.78 36.14 141.09 34.03 141.09 34.03C137.39 31.91 135.24 27.91 135.24 27.91C133.09 23.9 133.09 18.21 133.09 18.21C133.09 12.5 135.24 8.49 135.24 8.49C137.39 4.49 141.09 2.38 141.09 2.38C144.78 0.28 149.44 0.28 149.44 0.28C154.06 0.28 157.76 2.38 157.76 2.38ZM0 0.75L0 35.66L7.16 35.66L7.16 12.86L7.45 12.86L16.48 35.49L21.36 35.49L30.39 12.94L30.68 12.94L30.68 35.66L37.84 35.66L37.84 0.75L28.74 0.75L19.12 24.21L18.72 24.21L9.1 0.75L0 0.75ZM43.91 35.66L43.91 0.75L51.29 0.75L51.29 35.66L43.91 35.66ZM120.24 0.75L120.24 35.66L127.62 35.66L127.62 0.75L120.24 0.75ZM178.62 13.69L178.62 35.66L171.24 35.66L171.24 0.75L177.72 0.75L192.78 22.71L193.09 22.71L193.09 0.75L200.44 0.75L200.44 35.66L194.06 35.66L178.88 13.69L178.62 13.69ZM149.44 29.61C152.11 29.61 154.11 28.3 154.11 28.3C156.1 26.99 157.2 24.45 157.2 24.45C158.3 21.91 158.3 18.21 158.3 18.21C158.3 14.51 157.2 11.97 157.2 11.97C156.1 9.43 154.11 8.12 154.11 8.12C152.11 6.81 149.44 6.81 149.44 6.81C146.76 6.81 144.77 8.12 144.77 8.12C142.77 9.43 141.67 11.97 141.67 11.97C140.57 14.51 140.57 18.21 140.57 18.21C140.57 21.91 141.67 24.45 141.67 24.45C142.77 26.99 144.77 28.3 144.77 28.3C146.76 29.61 149.44 29.61 149.44 29.61Z" /><path id="文本 1" fill-rule="evenodd" style="fill:#49EB97" transform="translate(0 52.16257954545449)  rotate(0 100.09232954545456 8.781960227272727)" opacity="1" d="M74.59 3.06C74.59 3.06 75.26 3.06 75.74 2.61C75.74 2.61 76.22 2.16 76.22 1.53C76.22 1.53 76.22 0.9 75.74 0.45C75.74 0.45 75.26 0 74.58 0C74.58 0 73.91 0 73.43 0.45C73.43 0.45 72.95 0.9 72.95 1.53C72.95 1.53 72.95 2.16 73.43 2.61C73.43 2.61 73.91 3.06 74.59 3.06ZM160.77 2.61C160.77 2.61 161.26 3.06 161.93 3.06C161.93 3.06 162.61 3.06 163.09 2.61C163.09 2.61 163.57 2.16 163.57 1.53C163.57 1.53 163.57 0.9 163.09 0.45C163.09 0.45 162.61 0 161.92 0C161.92 0 161.26 0 160.77 0.45C160.77 0.45 160.29 0.9 160.29 1.53C160.29 1.53 160.29 2.16 160.77 2.61ZM4.69 0.15L0 17.56L2.61 17.56L7.29 0.15L4.69 0.15ZM7.8 17.56L12.49 0.15L15.09 0.15L10.4 17.56L7.8 17.56ZM15.6 17.56L20.28 0.15L22.89 0.15L18.2 17.56L15.6 17.56ZM177.29 17.56L181.98 0.15L184.59 0.15L179.9 17.56L177.29 17.56ZM185.09 17.56L189.78 0.15L192.39 0.15L187.7 17.56L185.09 17.56ZM197.58 0.15L192.89 17.56L195.5 17.56L200.18 0.15L197.58 0.15ZM32.95 15.38L32.95 3.37L28.49 3.37L28.49 0.83L40.44 0.83L40.44 3.37L35.99 3.37L35.99 15.38L32.95 15.38ZM59.33 15.38L62.4 15.38L62.4 11.24L63.91 9.4L67.9 15.38L71.58 15.38L66.12 7.34L71.51 0.83L67.83 0.83L62.59 7.24L62.4 7.24L62.4 0.83L59.33 0.83L59.33 15.38ZM78.5 15.38L78.5 0.83L81.53 0.83L81.53 15.38L78.5 15.38ZM83.94 0.83L83.94 15.38L86.97 15.38L86.97 0.83L83.94 0.83ZM120.66 3.07C120.66 3.07 120.04 2 118.87 1.42C118.87 1.42 117.71 0.83 116.06 0.83L110.32 0.83L110.32 15.38L113.39 15.38L113.39 10.22L115.639 10.22L118.39 15.38L121.79 15.38L118.701 9.73131C118.748 9.71167 118.794 9.69125 118.84 9.67C118.84 9.67 120.02 9.11 120.65 8.07C120.65 8.07 121.27 7.03 121.27 5.58C121.27 5.58 121.27 4.14 120.66 3.07ZM118.701 9.73131C117.533 10.22 115.98 10.22 115.98 10.22L115.639 10.22L114.86 8.76L118.17 8.76L118.701 9.73131ZM138.03 15.38L135.05 15.38L135.05 0.83L138.08 0.83L138.08 6.3L138.17 6.3C138.37 5.86 138.75 5.4 138.75 5.4C139.13 4.94 139.74 4.63 139.74 4.63C140.36 4.33 141.27 4.33 141.27 4.33C142.46 4.33 143.47 4.95 143.47 4.95C144.48 5.57 145.09 6.81 145.09 6.81C145.69 8.06 145.69 9.94 145.69 9.94C145.69 11.76 145.1 13.01 145.1 13.01C144.52 14.27 143.51 14.91 143.51 14.91C142.51 15.55 141.26 15.55 141.26 15.55C140.38 15.55 139.77 15.26 139.77 15.26C139.15 14.97 138.76 14.53 138.76 14.53C138.37 14.08 138.17 13.63 138.17 13.63L138.03 13.63L138.03 15.38ZM150.87 13.63C150.87 13.63 151.08 14.08 151.47 14.53C151.47 14.53 151.86 14.97 152.48 15.26C152.48 15.26 153.09 15.55 153.97 15.55C153.97 15.55 155.21 15.55 156.22 14.91C156.22 14.91 157.22 14.27 157.81 13.01C157.81 13.01 158.39 11.76 158.39 9.94C158.39 9.94 158.39 8.06 157.79 6.81C157.79 6.81 157.19 5.57 156.18 4.95C156.18 4.95 155.17 4.33 153.98 4.33C153.98 4.33 153.06 4.33 152.45 4.63C152.45 4.63 151.83 4.94 151.45 5.4C151.45 5.4 151.07 5.86 150.87 6.3L150.78 6.3L150.78 0.83L147.76 0.83L147.76 15.38L150.74 15.38L150.74 13.63L150.87 13.63ZM166.57 4.47L166.57 1.85L169.6 1.85L169.6 4.47L166.57 4.47ZM166.57 6.74L165.08 6.74L165.08 4.47L166.57 4.47L166.57 6.74ZM169.6 6.74L169.6 12.02C169.6 12.44 169.72 12.67 169.72 12.67C169.85 12.9 170.08 13 170.08 13C170.31 13.09 170.62 13.09 170.62 13.09C170.83 13.09 171.04 13.05 171.04 13.05L171.37 12.99L171.85 15.24C171.62 15.31 171.21 15.41 171.21 15.41C170.8 15.5 170.21 15.53 170.21 15.53C169.11 15.57 168.29 15.23 168.29 15.23C167.47 14.9 167.02 14.2 167.02 14.2C166.56 13.49 166.57 12.42 166.57 12.42L166.57 6.74L169.6 6.74ZM169.6 6.74L169.6 4.47L171.65 4.47L171.65 6.74L169.6 6.74ZM113.39 7.75L113.39 3.35L115.47 3.35C115.47 3.35 116.36 3.35 116.94 3.6C116.94 3.6 117.53 3.86 117.82 4.36C117.82 4.36 118.1 4.86 118.1 5.58C118.1 5.58 118.1 6.3 117.82 6.78C117.82 6.78 117.53 7.27 116.95 7.51C116.95 7.51 116.36 7.75 115.48 7.75L113.39 7.75ZM52 7.01C52.66 8.27 52.66 9.96 52.66 9.96C52.66 11.64 52 12.91 52 12.91C51.35 14.18 50.15 14.88 50.15 14.88C48.94 15.59 47.29 15.59 47.29 15.59C45.63 15.59 44.43 14.88 44.43 14.88C43.22 14.18 42.57 12.91 42.57 12.91C41.92 11.64 41.92 9.96 41.92 9.96C41.92 8.27 42.57 7.01 42.57 7.01C43.22 5.74 44.43 5.03 44.43 5.03C45.63 4.33 47.29 4.33 47.29 4.33C48.94 4.33 50.15 5.03 50.15 5.03C51.35 5.74 52 7.01 52 7.01ZM98.63 6.53C97.81 6.53 97.33 6.89 97.33 6.89C96.85 7.25 96.69 7.79 96.69 7.79L93.89 7.56C94.11 6.57 94.73 5.84 94.73 5.84C95.36 5.11 96.35 4.72 96.35 4.72C97.34 4.33 98.64 4.33 98.64 4.33C99.55 4.33 100.39 4.54 100.39 4.54C101.22 4.75 101.87 5.2 101.87 5.2C102.52 5.65 102.9 6.35 102.9 6.35C103.27 7.05 103.27 8.02 103.27 8.02L103.27 15.38L100.4 15.38L100.4 13.86L100.32 13.86C100.06 14.38 99.62 14.76 99.62 14.76C99.18 15.15 98.56 15.37 98.56 15.37C97.94 15.58 97.13 15.58 97.13 15.58C96.09 15.58 95.27 15.22 95.27 15.22C94.45 14.85 93.98 14.13 93.98 14.13C93.51 13.41 93.51 12.33 93.51 12.33C93.51 11.42 93.84 10.8 93.84 10.8C94.18 10.18 94.75 9.81 94.75 9.81C95.33 9.43 96.06 9.24 96.06 9.24C96.8 9.05 97.61 8.97 97.61 8.97C98.56 8.87 99.14 8.78 99.14 8.78C99.72 8.69 99.99 8.52 99.99 8.52C100.25 8.34 100.25 7.99 100.25 7.99L100.25 7.95C100.25 7.27 99.83 6.9 99.83 6.9C99.4 6.53 98.63 6.53 98.63 6.53ZM128 6.53C127.18 6.53 126.7 6.89 126.7 6.89C126.21 7.25 126.06 7.79 126.06 7.79L123.26 7.56C123.47 6.57 124.1 5.84 124.1 5.84C124.72 5.11 125.71 4.72 125.71 4.72C126.7 4.33 128.01 4.33 128.01 4.33C128.92 4.33 129.75 4.54 129.75 4.54C130.59 4.75 131.24 5.2 131.24 5.2C131.89 5.65 132.27 6.35 132.27 6.35C132.64 7.05 132.64 8.02 132.64 8.02L132.64 15.38L129.77 15.38L129.77 13.86L129.69 13.86C129.42 14.38 128.98 14.76 128.98 14.76C128.54 15.15 127.93 15.37 127.93 15.37C127.31 15.58 126.5 15.58 126.5 15.58C125.45 15.58 124.64 15.22 124.64 15.22C123.82 14.85 123.35 14.13 123.35 14.13C122.88 13.41 122.88 12.33 122.88 12.33C122.88 11.42 123.21 10.8 123.21 10.8C123.54 10.18 124.12 9.81 124.12 9.81C124.69 9.43 125.43 9.24 125.43 9.24C126.16 9.05 126.97 8.97 126.97 8.97C127.93 8.87 128.51 8.78 128.51 8.78C129.09 8.69 129.35 8.52 129.35 8.52C129.62 8.34 129.62 7.99 129.62 7.99L129.62 7.95C129.62 7.27 129.19 6.9 129.19 6.9C128.77 6.53 128 6.53 128 6.53ZM73.06 15.38L73.06 4.47L76.09 4.47L76.09 15.38L73.06 15.38ZM160.4 15.38L160.4 4.47L163.43 4.47L163.43 15.38L160.4 15.38ZM49.32 11.64C49.58 10.89 49.58 9.94 49.58 9.94C49.58 8.99 49.32 8.25 49.32 8.25C49.06 7.5 48.56 7.07 48.56 7.07C48.05 6.63 47.3 6.63 47.3 6.63C46.54 6.63 46.03 7.07 46.03 7.07C45.51 7.5 45.25 8.25 45.25 8.25C44.99 8.99 44.99 9.94 44.99 9.94C44.99 10.89 45.25 11.64 45.25 11.64C45.51 12.39 46.03 12.82 46.03 12.82C46.54 13.25 47.3 13.25 47.3 13.25C48.05 13.25 48.56 12.82 48.56 12.82C49.06 12.39 49.32 11.64 49.32 11.64ZM140.31 6.73C139.57 6.73 139.06 7.12 139.06 7.12C138.55 7.51 138.28 8.23 138.28 8.23C138.01 8.95 138.01 9.92 138.01 9.92C138.01 10.89 138.28 11.62 138.28 11.62C138.55 12.34 139.06 12.75 139.06 12.75C139.57 13.15 140.31 13.15 140.31 13.15C141.04 13.15 141.56 12.74 141.56 12.74C142.07 12.33 142.33 11.6 142.33 11.6C142.6 10.87 142.6 9.92 142.6 9.92C142.6 8.98 142.34 8.26 142.34 8.26C142.07 7.54 141.56 7.14 141.56 7.14C141.05 6.73 140.31 6.73 140.31 6.73ZM151.76 7.12C151.76 7.12 152.27 6.73 153.01 6.73C153.01 6.73 153.76 6.73 154.27 7.14C154.27 7.14 154.78 7.54 155.04 8.26C155.04 8.26 155.31 8.98 155.31 9.92C155.31 9.92 155.31 10.87 155.04 11.6C155.04 11.6 154.77 12.33 154.26 12.74C154.26 12.74 153.75 13.15 153.01 13.15C153.01 13.15 152.28 13.15 151.77 12.75C151.77 12.75 151.26 12.34 150.99 11.62C150.99 11.62 150.72 10.89 150.72 9.92C150.72 9.92 150.72 8.95 150.99 8.23C150.99 8.23 151.26 7.51 151.76 7.12ZM98 13.49C98.66 13.49 99.18 13.23 99.18 13.23C99.69 12.96 99.98 12.51 99.98 12.51C100.27 12.05 100.27 11.48 100.27 11.48L100.27 10.32C100.13 10.41 99.88 10.49 99.88 10.49C99.64 10.56 99.33 10.62 99.33 10.62C99.03 10.68 98.72 10.73 98.72 10.73C98.42 10.77 98.17 10.81 98.17 10.81C97.63 10.89 97.24 11.06 97.24 11.06C96.84 11.23 96.62 11.52 96.62 11.52C96.4 11.8 96.4 12.23 96.4 12.23C96.4 12.85 96.85 13.17 96.85 13.17C97.3 13.49 98 13.49 98 13.49ZM129.25 10.49C129.01 10.56 128.7 10.62 128.7 10.62C128.39 10.68 128.09 10.73 128.09 10.73C127.78 10.77 127.54 10.81 127.54 10.81C127 10.89 126.61 11.06 126.61 11.06C126.21 11.23 125.99 11.52 125.99 11.52C125.77 11.8 125.77 12.23 125.77 12.23C125.77 12.85 126.22 13.17 126.22 13.17C126.67 13.49 127.37 13.49 127.37 13.49C128.03 13.49 128.54 13.23 128.54 13.23C129.06 12.96 129.35 12.51 129.35 12.51C129.64 12.05 129.64 11.48 129.64 11.48L129.64 10.32C129.5 10.41 129.25 10.49 129.25 10.49Z" /><path id="文本 1" fill-rule="evenodd" style="fill:#49EB97" transform="translate(0.4673295454546178 109.78899999999999)  rotate(0 96.66477272727275 5.795454545454545)" opacity="1" d="M143.16 0.2C143.16 0.2 142.95 0 142.65 0C142.65 0 142.36 0 142.15 0.2C142.15 0.2 141.94 0.4 141.94 0.68C141.94 0.68 141.94 0.96 142.15 1.16C142.15 1.16 142.36 1.36 142.65 1.36C142.65 1.36 142.95 1.36 143.16 1.16C143.16 1.16 143.37 0.96 143.37 0.68C143.37 0.68 143.37 0.4 143.16 0.2ZM112.35 5.83C112.35 5.83 112.75 5.68 113.08 5.42C113.08 5.42 113.4 5.16 113.64 4.81L113.71 4.81C113.71 4.81 113.71 6.42 113.12 7.3C113.12 7.3 112.54 8.18 111.53 8.18C111.53 8.18 110.84 8.18 110.42 7.79C110.42 7.79 110 7.4 109.86 6.8L108.82 6.8C108.82 6.8 108.92 7.49 109.28 8.01C109.28 8.01 109.65 8.54 110.22 8.83C110.22 8.83 110.8 9.12 111.53 9.12C111.53 9.12 112.27 9.12 112.85 8.8C112.85 8.8 113.44 8.48 113.85 7.86C113.85 7.86 114.26 7.24 114.48 6.34C114.48 6.34 114.7 5.44 114.7 4.28C114.7 4.28 114.7 3.07 114.43 2.27C114.43 2.27 114.16 1.47 113.72 1.01C113.72 1.01 113.28 0.54 112.74 0.34C112.74 0.34 112.2 0.14 111.66 0.14C111.66 0.14 110.78 0.13 110.12 0.52C110.12 0.52 109.47 0.92 109.11 1.59C109.11 1.59 108.75 2.26 108.75 3.07C108.75 3.07 108.75 3.91 109.12 4.57C109.12 4.57 109.5 5.22 110.12 5.59C110.12 5.59 110.74 5.97 111.49 5.97C111.49 5.97 111.95 5.97 112.35 5.83ZM6.14 8.37C6.14 8.37 6.61 8 6.93 7.47C6.93 7.47 7.24 6.94 7.36 6.27L6.31 6.27C6.31 6.27 6.21 6.72 5.98 7.07C5.98 7.07 5.75 7.42 5.42 7.66C5.42 7.66 5.09 7.89 4.69 8.01C4.69 8.01 4.29 8.13 3.85 8.13C3.85 8.13 3.06 8.13 2.42 7.73C2.42 7.73 1.78 7.33 1.4 6.55C1.4 6.55 1.02 5.77 1.02 4.64C1.02 4.64 1.02 3.5 1.4 2.72C1.4 2.72 1.78 1.94 2.42 1.54C2.42 1.54 3.06 1.14 3.85 1.14C3.85 1.14 4.29 1.14 4.69 1.26C4.69 1.26 5.09 1.38 5.42 1.62C5.42 1.62 5.75 1.85 5.98 2.2C5.98 2.2 6.21 2.54 6.31 3L7.36 3C7.36 3 7.24 2.33 6.93 1.8C6.93 1.8 6.61 1.27 6.14 0.91C6.14 0.91 5.68 0.54 5.09 0.35C5.09 0.35 4.51 0.15 3.85 0.15C3.85 0.15 2.74 0.15 1.87 0.7C1.87 0.7 1 1.24 0.5 2.25C0.5 2.25 0 3.26 0 4.64C0 4.64 0 6.02 0.5 7.02C0.5 7.02 1 8.03 1.87 8.57C1.87 8.57 2.74 9.12 3.85 9.12C3.85 9.12 4.51 9.12 5.09 8.93C5.09 8.93 5.68 8.74 6.14 8.37ZM9.23 7.02C9.23 7.02 9.72 8.03 10.59 8.57C10.59 8.57 11.46 9.12 12.58 9.12C12.58 9.12 13.7 9.12 14.57 8.57C14.57 8.57 15.43 8.03 15.93 7.02C15.93 7.02 16.43 6.02 16.43 4.64C16.43 4.64 16.43 3.26 15.93 2.25C15.93 2.25 15.43 1.24 14.57 0.7C14.57 0.7 13.7 0.15 12.58 0.15C12.58 0.15 11.46 0.15 10.59 0.7C10.59 0.7 9.72 1.24 9.23 2.25C9.23 2.25 8.73 3.26 8.73 4.64C8.73 4.64 8.73 6.02 9.23 7.02ZM50.33 0.68C51.01 1.21 51.37 2.22 51.37 2.22C51.73 3.22 51.73 4.64 51.73 4.64C51.73 6.06 51.37 7.06 51.37 7.06C51.02 8.07 50.34 8.59 50.34 8.59C49.66 9.12 48.7 9.12 48.7 9.12C47.74 9.12 47.06 8.59 47.06 8.59C46.38 8.07 46.02 7.06 46.02 7.06C45.66 6.06 45.66 4.64 45.66 4.64C45.66 3.22 46.02 2.22 46.02 2.22C46.38 1.21 47.06 0.68 47.06 0.68C47.74 0.15 48.7 0.15 48.7 0.15C49.65 0.15 50.33 0.68 50.33 0.68ZM54.8 7.99L56.76 5.9C56.76 5.9 57.51 5.09 57.94 4.53C57.94 4.53 58.36 3.97 58.53 3.51C58.53 3.51 58.7 3.06 58.7 2.57C58.7 2.57 58.7 1.9 58.37 1.35C58.37 1.35 58.03 0.8 57.44 0.48C57.44 0.48 56.85 0.15 56.08 0.15C56.08 0.15 55.32 0.15 54.71 0.48C54.71 0.48 54.09 0.8 53.74 1.38C53.74 1.38 53.39 1.96 53.39 2.73L54.39 2.73C54.39 2.73 54.39 2.23 54.59 1.86C54.59 1.86 54.8 1.49 55.17 1.28C55.17 1.28 55.54 1.07 56.05 1.07C56.05 1.07 56.52 1.07 56.9 1.26C56.9 1.26 57.28 1.44 57.5 1.78C57.5 1.78 57.72 2.11 57.72 2.57C57.72 2.57 57.72 2.97 57.56 3.34C57.56 3.34 57.4 3.7 57.07 4.11C57.07 4.11 56.74 4.53 56.23 5.08L53.35 8.23L53.35 9L58.86 9L58.86 8.06L54.8 8.06L54.8 7.99ZM68.98 0.15C68.98 0.15 68.03 0.15 67.35 0.68C67.35 0.68 66.67 1.21 66.31 2.22C66.31 2.22 65.95 3.22 65.95 4.64C65.95 4.64 65.95 6.06 66.31 7.06C66.31 7.06 66.66 8.07 67.34 8.59C67.34 8.59 68.02 9.12 68.98 9.12C68.98 9.12 69.95 9.12 70.62 8.59C70.62 8.59 71.3 8.07 71.66 7.06C71.66 7.06 72.02 6.06 72.02 4.64C72.02 4.64 72.02 3.22 71.66 2.22C71.66 2.22 71.3 1.21 70.62 0.68C70.62 0.68 69.94 0.15 68.98 0.15ZM74.02 1.38C74.38 0.8 74.99 0.48 74.99 0.48C75.6 0.15 76.36 0.15 76.36 0.15C77.13 0.15 77.72 0.48 77.72 0.48C78.32 0.8 78.65 1.35 78.65 1.35C78.99 1.9 78.99 2.57 78.99 2.57C78.99 3.06 78.82 3.51 78.82 3.51C78.64 3.97 78.22 4.53 78.22 4.53C77.8 5.09 77.05 5.9 77.05 5.9L75.09 7.99L75.09 8.06L79.14 8.06L79.14 9L73.64 9L73.64 8.23L76.52 5.08C77.02 4.53 77.35 4.11 77.35 4.11C77.68 3.7 77.84 3.34 77.84 3.34C78 2.97 78 2.57 78 2.57C78 2.11 77.78 1.78 77.78 1.78C77.56 1.44 77.18 1.26 77.18 1.26C76.8 1.07 76.33 1.07 76.33 1.07C75.83 1.07 75.45 1.28 75.45 1.28C75.08 1.49 74.88 1.86 74.88 1.86C74.68 2.23 74.68 2.73 74.68 2.73L73.67 2.73C73.67 1.96 74.02 1.38 74.02 1.38ZM90.14 4.11C90.46 3.7 90.62 3.34 90.62 3.34C90.78 2.97 90.78 2.57 90.78 2.57C90.78 2.11 90.56 1.78 90.56 1.78C90.35 1.44 89.97 1.26 89.97 1.26C89.59 1.07 89.11 1.07 89.11 1.07C88.61 1.07 88.24 1.28 88.24 1.28C87.87 1.49 87.66 1.86 87.66 1.86C87.46 2.23 87.46 2.73 87.46 2.73L86.45 2.73C86.45 1.96 86.81 1.38 86.81 1.38C87.16 0.8 87.77 0.48 87.77 0.48C88.38 0.15 89.15 0.15 89.15 0.15C89.91 0.15 90.51 0.48 90.51 0.48C91.1 0.8 91.44 1.35 91.44 1.35C91.77 1.9 91.77 2.57 91.77 2.57C91.77 3.06 91.6 3.51 91.6 3.51C91.43 3.97 91 4.53 91 4.53C90.58 5.09 89.83 5.9 89.83 5.9L87.87 7.99L87.87 8.06L91.93 8.06L91.93 9L86.42 9L86.42 8.23L89.3 5.08C89.81 4.53 90.14 4.11 90.14 4.11ZM99.56 4.64C99.56 6.06 99.2 7.06 99.2 7.06C98.85 8.07 98.17 8.59 98.17 8.59C97.49 9.12 96.53 9.12 96.53 9.12C95.57 9.12 94.89 8.59 94.89 8.59C94.21 8.07 93.85 7.06 93.85 7.06C93.49 6.06 93.49 4.64 93.49 4.64C93.49 3.22 93.85 2.22 93.85 2.22C94.21 1.21 94.89 0.68 94.89 0.68C95.57 0.15 96.53 0.15 96.53 0.15C97.48 0.15 98.16 0.68 98.16 0.68C98.84 1.21 99.2 2.22 99.2 2.22C99.56 3.22 99.56 4.64 99.56 4.64ZM23.19 0.79C23.19 0.79 22.29 0.27 21.02 0.27L18.2 0.27L18.2 9L20.9 9C20.9 9 22.23 9 23.16 8.47C23.16 8.47 24.09 7.95 24.57 6.97C24.57 6.97 25.06 5.98 25.06 4.62C25.06 4.62 25.06 3.26 24.58 2.29C24.58 2.29 24.09 1.32 23.19 0.79ZM26.83 9L26.83 0.27L32.1 0.27L32.1 1.21L27.89 1.21L27.89 4.16L31.82 4.16L31.82 5.1L27.89 5.1L27.89 8.06L32.16 8.06L32.16 9L26.83 9ZM104.81 0.27L100.98 6.34L100.98 7.21L105.09 7.21L105.09 9L106.09 9L106.09 7.21L107.28 7.21L107.28 6.27L106.09 6.27L106.09 0.27L105.44 0.27L105.44 1.62L105.09 1.62L105.09 0.27L104.81 0.27ZM105.09 6.27L102.12 6.27L102.12 6.2L105.02 1.62L105.09 1.62L105.09 6.27ZM105.09 6.27L105.09 7.21L106.09 7.21L106.09 6.27L105.09 6.27ZM139.11 0.27L140.16 0.27L140.16 9L139.11 9L139.11 5.1L134.45 5.1L134.45 9L133.4 9L133.4 0.27L134.45 0.27L134.45 4.16L139.11 4.16L139.11 0.27ZM156.55 4.91L156.55 9L157.55 9L157.55 4.84C157.55 4.84 157.55 4 157.27 3.45C157.27 3.45 156.99 2.9 156.49 2.64C156.49 2.64 155.99 2.37 155.32 2.37C155.32 2.37 154.55 2.37 154.08 2.67C154.08 2.67 153.62 2.97 153.39 3.48L153.31 3.48L153.31 0.27L152.3 0.27L152.3 9L153.31 9L153.31 5.06C153.31 5.06 153.31 4.49 153.53 4.09C153.53 4.09 153.75 3.69 154.14 3.48C154.14 3.48 154.53 3.27 155.03 3.27C155.03 3.27 155.74 3.27 156.14 3.7C156.14 3.7 156.55 4.13 156.55 4.91ZM170.16 9L170.16 8.06L166.11 8.06L166.11 0.27L165.05 0.27L165.05 9L170.16 9ZM192.32 9L192.32 0.27L193.33 0.27L193.33 9L192.32 9ZM48.7 8.18C49.65 8.18 50.18 7.26 50.18 7.26C50.71 6.34 50.71 4.64 50.71 4.64C50.71 3.5 50.47 2.71 50.47 2.71C50.23 1.91 49.78 1.49 49.78 1.49C49.33 1.07 48.7 1.07 48.7 1.07C47.75 1.07 47.22 2 47.22 2C46.69 2.94 46.69 4.64 46.69 4.64C46.69 5.77 46.93 6.56 46.93 6.56C47.16 7.36 47.61 7.77 47.61 7.77C48.06 8.18 48.7 8.18 48.7 8.18ZM70.99 4.64C70.99 4.64 70.99 6.34 70.47 7.26C70.47 7.26 69.94 8.18 68.98 8.18C68.98 8.18 68.35 8.18 67.9 7.77C67.9 7.77 67.45 7.36 67.21 6.56C67.21 6.56 66.97 5.77 66.97 4.64C66.97 4.64 66.97 2.94 67.5 2C67.5 2 68.04 1.07 68.98 1.07C68.98 1.07 69.61 1.07 70.06 1.49C70.06 1.49 70.51 1.91 70.75 2.71C70.75 2.71 70.99 3.5 70.99 4.64ZM96.53 1.07C95.58 1.07 95.05 2 95.05 2C94.52 2.94 94.52 4.64 94.52 4.64C94.52 5.77 94.76 6.56 94.76 6.56C94.99 7.36 95.44 7.77 95.44 7.77C95.89 8.18 96.53 8.18 96.53 8.18C97.48 8.18 98.01 7.26 98.01 7.26C98.54 6.34 98.54 4.64 98.54 4.64C98.54 3.5 98.3 2.71 98.3 2.71C98.06 1.91 97.61 1.49 97.61 1.49C97.16 1.07 96.53 1.07 96.53 1.07ZM113.56 3.05C113.56 3.05 113.56 3.44 113.41 3.79C113.41 3.79 113.26 4.15 113 4.43C113 4.43 112.73 4.71 112.38 4.87C112.38 4.87 112.04 5.03 111.63 5.03C111.63 5.03 111.09 5.03 110.67 4.77C110.67 4.77 110.25 4.5 110.01 4.06C110.01 4.06 109.77 3.61 109.77 3.07C109.77 3.07 109.77 2.51 110.02 2.06C110.02 2.06 110.27 1.61 110.7 1.34C110.7 1.34 111.13 1.07 111.66 1.07C111.66 1.07 112.21 1.07 112.64 1.35C112.64 1.35 113.07 1.63 113.31 2.08C113.31 2.08 113.56 2.53 113.56 3.05ZM12.58 8.13C12.58 8.13 11.79 8.13 11.15 7.73C11.15 7.73 10.5 7.33 10.13 6.55C10.13 6.55 9.75 5.77 9.75 4.64C9.75 4.64 9.75 3.5 10.13 2.72C10.13 2.72 10.5 1.94 11.15 1.54C11.15 1.54 11.79 1.14 12.58 1.14C12.58 1.14 13.37 1.14 14.01 1.54C14.01 1.54 14.65 1.94 15.03 2.72C15.03 2.72 15.41 3.5 15.41 4.64C15.41 4.64 15.41 5.77 15.03 6.55C15.03 6.55 14.65 7.33 14.01 7.73C14.01 7.73 13.37 8.13 12.58 8.13ZM23.68 6.46C23.68 6.46 23.34 7.23 22.62 7.64C22.62 7.64 21.91 8.06 20.83 8.06L19.26 8.06L19.26 1.21L20.95 1.21C20.95 1.21 21.97 1.21 22.66 1.62C22.66 1.62 23.34 2.03 23.69 2.8C23.69 2.8 24.03 3.56 24.03 4.62C24.03 4.62 24.03 5.68 23.68 6.46ZM36.86 2.28C36.86 1.73 36.43 1.37 35.95 1.37C35.47 1.37 35.04 1.73 35.04 2.28C35.04 2.82 35.47 3.17 35.95 3.17C36.43 3.17 36.86 2.82 36.86 2.28ZM146.1 10.13C146.1 10.13 145.89 9.89 145.76 9.72L144.95 10.28C144.95 10.28 145.16 10.62 145.51 10.92C145.51 10.92 145.85 11.22 146.38 11.41C146.38 11.41 146.9 11.59 147.63 11.59C147.63 11.59 148.41 11.59 149.06 11.34C149.06 11.34 149.7 11.09 150.08 10.56C150.08 10.56 150.46 10.03 150.46 9.19L150.46 2.45L149.49 2.45L149.49 3.49L149.39 3.49C149.39 3.49 149.28 3.32 149.07 3.06C149.07 3.06 148.87 2.79 148.49 2.58C148.49 2.58 148.12 2.37 147.48 2.37C147.48 2.37 146.65 2.37 146.02 2.78C146.02 2.78 145.39 3.19 145.04 3.94C145.04 3.94 144.68 4.69 144.68 5.69C144.68 5.69 144.68 6.72 145.05 7.43C145.05 7.43 145.41 8.15 146.04 8.52C146.04 8.52 146.67 8.9 147.46 8.9C147.46 8.9 148.1 8.9 148.48 8.7C148.48 8.7 148.85 8.49 149.06 8.23C149.06 8.23 149.26 7.97 149.37 7.79L149.45 7.79L149.45 9.12C149.45 9.12 149.45 9.94 148.94 10.32C148.94 10.32 148.42 10.7 147.63 10.7C147.63 10.7 147.04 10.7 146.67 10.53C146.67 10.53 146.31 10.36 146.1 10.13ZM172.363 6.07L177.12 6.07L177.12 5.64C177.12 5.64 177.12 4.73 176.88 4.1C176.88 4.1 176.63 3.47 176.22 3.09C176.22 3.09 175.82 2.71 175.32 2.54C175.32 2.54 174.82 2.37 174.31 2.37C174.31 2.37 173.42 2.37 172.76 2.8C172.76 2.8 172.1 3.23 171.73 4C171.73 4 171.36 4.77 171.36 5.78C171.36 5.78 171.36 6.78 171.73 7.54C171.73 7.54 172.1 8.3 172.78 8.72C172.78 8.72 173.46 9.14 174.41 9.14C174.41 9.14 175.07 9.14 175.61 8.93C175.61 8.93 176.14 8.72 176.5 8.35C176.5 8.35 176.86 7.98 177.02 7.48L176.05 7.21C176.05 7.21 175.92 7.55 175.68 7.78C175.68 7.78 175.45 8.01 175.13 8.12C175.13 8.12 174.81 8.23 174.41 8.23C174.41 8.23 173.8 8.23 173.34 7.97C173.34 7.97 172.88 7.7 172.62 7.19C172.62 7.19 172.392 6.73475 172.363 6.07ZM190.79 6.07L186.033 6.07C186.062 6.73475 186.29 7.19 186.29 7.19C186.55 7.7 187.01 7.97 187.01 7.97C187.47 8.23 188.08 8.23 188.08 8.23C188.48 8.23 188.8 8.12 188.8 8.12C189.12 8.01 189.35 7.78 189.35 7.78C189.59 7.55 189.72 7.21 189.72 7.21L190.69 7.48C190.53 7.98 190.17 8.35 190.17 8.35C189.81 8.72 189.28 8.93 189.28 8.93C188.74 9.14 188.08 9.14 188.08 9.14C187.13 9.14 186.45 8.72 186.45 8.72C185.77 8.3 185.4 7.54 185.4 7.54C185.03 6.78 185.03 5.78 185.03 5.78C185.03 4.77 185.4 4 185.4 4C185.77 3.23 186.43 2.8 186.43 2.8C187.09 2.37 187.98 2.37 187.98 2.37C188.49 2.37 188.99 2.54 188.99 2.54C189.49 2.71 189.89 3.09 189.89 3.09C190.3 3.47 190.55 4.1 190.55 4.1C190.79 4.73 190.79 5.64 190.79 5.64L190.79 6.07ZM142.14 2.45L143.15 2.45L143.15 9L142.14 9L142.14 2.45ZM181.11 7.67L181.04 7.67L179.23 2.45L178.14 2.45L180.56 9L181.59 9L184.01 2.45L182.91 2.45L181.11 7.67ZM145.9 6.88C145.9 6.88 145.69 6.36 145.69 5.68C145.69 5.68 145.69 5.01 145.9 4.47C145.9 4.47 146.11 3.92 146.53 3.6C146.53 3.6 146.96 3.27 147.6 3.27C147.6 3.27 148.21 3.27 148.63 3.58C148.63 3.58 149.05 3.89 149.26 4.43C149.26 4.43 149.47 4.97 149.47 5.68C149.47 5.68 149.47 6.4 149.25 6.92C149.25 6.92 149.04 7.44 148.62 7.72C148.62 7.72 148.2 7.99 147.6 7.99C147.6 7.99 146.97 7.99 146.54 7.7C146.54 7.7 146.12 7.4 145.9 6.88ZM172.6 4.34C172.438 4.65734 172.385 5.0066 172.368 5.2L176.1 5.2C176.1 4.64 175.88 4.21 175.88 4.21C175.66 3.78 175.25 3.52 175.25 3.52C174.85 3.27 174.31 3.27 174.31 3.27C173.71 3.27 173.27 3.57 173.27 3.57C172.83 3.87 172.6 4.34 172.6 4.34ZM186.038 5.2C186.055 5.0066 186.108 4.65734 186.27 4.34C186.27 4.34 186.5 3.87 186.94 3.57C186.94 3.57 187.38 3.27 187.98 3.27C187.98 3.27 188.52 3.27 188.93 3.52C188.93 3.52 189.33 3.78 189.55 4.21C189.55 4.21 189.77 4.64 189.77 5.2L186.038 5.2ZM60.56 4.79L60.56 5.73L64.38 5.73L64.38 4.79L60.56 4.79ZM80.85 5.73L80.85 4.79L84.66 4.79L84.66 5.73L80.85 5.73ZM159.32 5.73L159.32 4.79L163.14 4.79L163.14 5.73L159.32 5.73ZM35.95 7.25C36.43 7.25 36.86 7.6 36.86 8.15C36.86 8.69 36.43 9.05 35.95 9.05C35.47 9.05 35.04 8.69 35.04 8.15C35.04 7.6 35.47 7.25 35.95 7.25Z" /></g></svg>