<svg xmlns="http://www.w3.org/2000/svg" xmlns:xlink="http://www.w3.org/1999/xlink" width="188" height="399" viewBox="0 0 188 399" fill="none"><g opacity="1" transform="translate(0 0)  rotate(0 93.515625 199.5)"><path id="分组 2" fill-rule="evenodd" style="fill:#095E38" transform="translate(0 0)  rotate(0 93.515625 199.5)" opacity="1" d="M180.91 0.01C180.87 0 180.84 0 180.8 0C180.76 0 180.72 0.01 180.68 0.01C180.55 0.01 180.42 0.02 180.28 0.03C180.2 0.03 180.12 0.04 180.04 0.05C179.93 0.07 179.81 0.08 179.69 0.1C179.6 0.12 179.5 0.14 179.41 0.16C179.31 0.18 179.22 0.21 179.12 0.24C179.01 0.27 178.9 0.3 178.79 0.34C178.71 0.36 178.63 0.39 178.55 0.42C178.43 0.47 178.31 0.52 178.19 0.58C178.16 0.59 178.12 0.6 178.08 0.62C178.01 0.66 177.94 0.7 177.87 0.73C177.85 0.74 177.83 0.75 177.81 0.76C151.33 13.73 128.65 49.51 114.28 77.31C106.03 93.24 98.51 110.71 93.51 124.88C88.51 110.71 80.99 93.24 72.75 77.31C58.37 49.51 35.7 13.73 9.22 0.76C9.2 0.75 9.18 0.74 9.16 0.73C9.09 0.7 9.01 0.66 8.94 0.62C8.91 0.6 8.87 0.59 8.83 0.58C8.72 0.52 8.59 0.47 8.47 0.42C8.4 0.39 8.32 0.36 8.24 0.34C8.13 0.3 8.02 0.27 7.9 0.23C7.81 0.21 7.72 0.18 7.62 0.16C7.53 0.14 7.43 0.12 7.33 0.1C7.22 0.08 7.1 0.06 6.99 0.05C6.91 0.04 6.82 0.03 6.74 0.03C6.61 0.01 6.48 0.01 6.35 0.01C6.31 0.01 6.27 0 6.23 0C6.2 0 6.16 0.01 6.12 0.01C5.99 0.01 5.87 0.01 5.74 0.02C5.65 0.03 5.57 0.04 5.48 0.05C5.37 0.06 5.27 0.08 5.16 0.1C5.06 0.12 4.96 0.13 4.85 0.16C4.77 0.18 4.68 0.2 4.6 0.22C4.48 0.26 4.37 0.29 4.26 0.32C4.18 0.35 4.11 0.38 4.03 0.41C3.92 0.45 3.81 0.49 3.7 0.54C3.62 0.58 3.55 0.61 3.47 0.65C3.37 0.7 3.27 0.75 3.17 0.81C3.09 0.85 3 0.91 2.92 0.96C2.84 1.01 2.76 1.06 2.68 1.12C2.58 1.18 2.5 1.25 2.41 1.32C2.34 1.37 2.27 1.42 2.21 1.48C2.12 1.55 2.03 1.64 1.94 1.72C1.89 1.77 1.83 1.83 1.77 1.88C1.69 1.97 1.61 2.06 1.53 2.15C1.48 2.21 1.42 2.28 1.36 2.35C1.3 2.43 1.24 2.51 1.18 2.6C1.11 2.69 1.05 2.77 0.99 2.86C0.95 2.94 0.9 3.01 0.86 3.09C0.79 3.2 0.73 3.31 0.67 3.42C0.66 3.46 0.64 3.49 0.62 3.52C0.6 3.56 0.59 3.59 0.57 3.63C0.52 3.75 0.47 3.87 0.42 3.99C0.39 4.07 0.36 4.15 0.34 4.22C0.3 4.33 0.26 4.45 0.23 4.56C0.21 4.65 0.18 4.75 0.16 4.84C0.14 4.94 0.12 5.04 0.1 5.13C0.08 5.25 0.06 5.36 0.05 5.48C0.04 5.56 0.03 5.64 0.02 5.72C0.01 5.85 0.01 5.98 0.01 6.11C0.01 6.15 0 6.19 0 6.23C0 114.44 27.12 170.64 33.44 182.25C32.76 185.36 31.98 188.54 31.1 191.8C31.08 191.86 31.07 191.93 31.05 192C31.04 192.07 31.02 192.13 31 192.2C30.48 194.78 28.24 200.11 25.64 206.28C16.68 227.58 0 267.22 0 317.95C0 342.78 9.65 363.65 27.9 378.3C44.53 391.65 67.83 399 93.52 399C119.2 399 142.5 391.65 159.14 378.3C177.39 363.65 187.03 342.78 187.03 317.95C187.03 267.22 170.35 227.58 161.39 206.28C158.79 200.11 156.55 194.78 156.03 192.2C156.01 192.13 155.99 192.06 155.98 192C155.96 191.93 155.95 191.86 155.93 191.8C155.05 188.54 154.28 185.36 153.59 182.25C159.91 170.64 187.03 114.44 187.03 6.23C187.03 6.19 187.03 6.15 187.03 6.11C187.02 5.98 187.02 5.85 187.01 5.73C187 5.64 186.99 5.56 186.98 5.48C186.97 5.36 186.95 5.25 186.93 5.13C186.91 5.04 186.89 4.94 186.87 4.84C186.85 4.75 186.82 4.65 186.8 4.56C186.77 4.45 186.73 4.33 186.69 4.22C186.67 4.15 186.64 4.07 186.61 3.99C186.56 3.87 186.51 3.75 186.46 3.63C186.44 3.6 186.43 3.56 186.41 3.52C186.39 3.49 186.37 3.46 186.36 3.42C186.3 3.31 186.24 3.2 186.17 3.09C186.13 3.01 186.08 2.94 186.04 2.86C185.98 2.77 185.92 2.69 185.86 2.6C185.79 2.51 185.73 2.43 185.67 2.35C185.61 2.28 185.55 2.21 185.5 2.15C185.42 2.06 185.34 1.97 185.26 1.89C185.2 1.83 185.14 1.77 185.09 1.72C185 1.64 184.91 1.55 184.82 1.48C184.76 1.42 184.69 1.37 184.62 1.32C184.53 1.25 184.44 1.18 184.35 1.12C184.27 1.06 184.19 1.01 184.1 0.96C184.02 0.91 183.94 0.85 183.86 0.81C183.76 0.75 183.66 0.7 183.56 0.65C183.48 0.61 183.41 0.58 183.33 0.54C183.22 0.49 183.11 0.45 182.99 0.41C182.92 0.38 182.85 0.35 182.77 0.32C182.66 0.29 182.55 0.25 182.43 0.22C182.35 0.2 182.26 0.18 182.18 0.16C182.07 0.14 181.97 0.12 181.87 0.1C181.76 0.08 181.66 0.06 181.55 0.05C181.46 0.04 181.38 0.03 181.29 0.02C181.16 0.01 181.04 0.01 180.91 0.01Z M171.414 66.3813C170.754 67.9213 170.084 69.4613 169.414 71.0113C158.384 96.5013 147.064 122.691 150.134 159.681C152.594 153.441 155.354 145.601 158.114 136.131C162.844 119.861 168.144 96.5613 171.414 66.3813Z M36.9045 159.648C39.9545 122.678 28.6445 96.4984 17.6145 71.0084C16.9345 69.4484 16.2645 67.8884 15.5945 66.3384C20.4345 111.058 29.9345 141.898 36.9045 159.648Z M86.3741 386.3C88.7241 386.44 91.1041 386.53 93.5141 386.53C95.9241 386.53 98.3041 386.44 100.654 386.3C97.9741 384.71 95.5441 382.86 93.5141 380.83C91.4841 382.86 89.0541 384.71 86.3741 386.3Z M37.4088 361.595C37.4088 358.155 40.1987 355.355 43.6387 355.355C47.0788 355.355 49.8787 358.155 49.8787 361.595C49.8787 368.425 51.4087 373.425 54.4388 376.455C56.8488 378.885 60.2988 380.105 64.6888 380.105C69.9487 380.105 75.9888 378.255 80.8487 375.145C85.5687 372.115 87.2787 369.115 87.2787 367.825L87.2787 358.695L71.3587 348.075C68.4888 346.165 67.7188 342.295 69.6288 339.435C71.5387 336.565 75.4088 335.795 78.2688 337.705L93.5188 347.865L108.759 337.705C111.629 335.795 115.499 336.565 117.409 339.435C119.319 342.295 118.539 346.165 115.679 348.075L99.7487 358.695L99.7487 367.825C99.7487 371.665 110.679 380.105 122.349 380.105C126.729 380.105 130.179 378.885 132.599 376.455C135.619 373.425 137.159 368.425 137.159 361.595C137.159 358.155 139.949 355.355 143.389 355.355C146.829 355.355 149.629 358.155 149.629 361.595C149.629 364.775 149.359 367.735 148.829 370.475C149.679 369.855 150.519 369.225 151.329 368.575C166.529 356.375 174.559 338.865 174.559 317.955C174.559 269.735 158.519 231.605 149.899 211.125C146.869 203.935 144.669 198.705 143.859 194.915C127.839 135.695 143.849 98.7054 157.979 66.0554C164.929 50.0054 171.559 34.6854 173.779 17.9254C158.049 29.8454 141.199 52.4154 125.359 83.0354C111.619 109.585 103.239 133.215 100.629 144.225C105.769 145.385 110.879 147.785 115.909 151.445C118.689 153.465 119.299 157.365 117.279 160.155C116.059 161.825 114.159 162.715 112.229 162.715C110.959 162.715 109.669 162.325 108.569 161.525C103.409 157.765 98.3388 155.855 93.5188 155.855C88.6888 155.855 83.6288 157.765 78.4688 161.525C75.6787 163.545 71.7787 162.935 69.7588 160.145C67.7287 157.365 68.3387 153.465 71.1288 151.445C76.1488 147.785 81.2588 145.375 86.3988 144.225C83.7887 133.215 75.4088 109.585 61.6787 83.0354C45.8387 52.4154 28.9788 29.8454 13.2487 17.9254C15.4788 34.6754 22.1087 50.0054 29.0588 66.0554C43.1888 98.6954 59.1987 135.695 43.1688 194.915C42.3587 198.705 40.1588 203.935 37.1387 211.115C28.5187 231.605 12.4688 269.735 12.4688 317.955C12.4688 338.865 20.4987 356.375 35.6987 368.575C36.5187 369.225 37.3487 369.855 38.1987 370.475C37.6688 367.735 37.4088 364.775 37.4088 361.595Z " /><path id="路径 6" fill-rule="evenodd" style="fill:#095E38" transform="translate(31.171875 236.90625000000003)  rotate(0 9.3515625 15.585937500000002)" opacity="1" d="M0,15.59C0,25.2 3.58,31.17 9.35,31.17C15.12,31.17 18.7,25.2 18.7,15.59C18.7,5.97 15.12,0 9.35,0C3.58,0 0,5.97 0,15.59Z " /><path id="路径 7" fill-rule="evenodd" style="fill:#095E38" transform="translate(137.15625000000003 236.90625000000003)  rotate(0 9.3515625 15.585937500000002)" opacity="1" d="M9.35,31.17C15.12,31.17 18.7,25.2 18.7,15.59C18.7,5.97 15.12,0 9.35,0C3.58,0 0,5.97 0,15.59C0,25.2 3.58,31.17 9.35,31.17Z " /></g></svg>