<svg xmlns="http://www.w3.org/2000/svg" xmlns:xlink="http://www.w3.org/1999/xlink" width="239" height="239" viewBox="0 0 239 239" fill="none"><g opacity="1" transform="translate(21.917266845703125 21.917236328125)  rotate(15 97.52059925093633 97.52059925093633)"><path id="圆形 2" fill-rule="evenodd" style="fill:#F1E4A5" transform="translate(0 0)  rotate(0 97.52059925093633 97.52059925093633)" opacity="1" d="M97.52,0C43.66,0 0,43.66 0,97.52C0,151.38 43.66,195.04 97.52,195.04C151.38,195.04 195.04,151.38 195.04,97.52C195.04,43.66 151.38,0 97.52,0Z " /><path id="星形 1" fill-rule="evenodd" style="fill:#E27881" transform="translate(25 119)  rotate(0 8.65625 8.65625)" opacity="1" d="M11.2,5.15L8.66,0L6.11,5.15L0.42,5.98L4.54,9.99L3.57,15.66L8.66,12.98L13.74,15.66L12.77,9.99L16.89,5.98L11.2,5.15Z " /><g opacity="1" transform="translate(38.93075558825876 17.44327826193455)  rotate(-180 63.57599297159018 76.71998182205105)"><path id="路径 1" fill-rule="evenodd" style="fill:#E27881" transform="translate(12.838637385582928 8.98161625462457)  rotate(-11.86008780279144 50.73735558600725 67.73836556742648)" opacity="1" d="M86.6,125.73C87.64,122.59 88.01,121.23 88.41,118.84C88.57,117.9 88.84,116.47 89,115.68C89.16,114.88 89.33,113.91 89.37,113.51C89.41,113.11 89.52,112.33 89.62,111.76C89.71,111.2 89.85,110.2 89.92,109.54C89.98,108.88 90.09,107.85 90.16,107.25C90.63,102.83 90.94,95.99 90.85,92.62C90.62,85.34 89.51,78.58 87.45,71.79C86.9,69.97 86.8,69.27 87.05,68.74C87.13,68.57 87.87,67.81 88.7,67.07C91.97,64.14 94.51,60.92 96.65,57.01C98.77,53.16 100.16,49 101.07,43.84C101.49,41.39 101.61,37.04 101.31,34.73C101.08,32.99 100.62,30.57 100.2,28.88C99.21,24.88 97.26,20.68 94.48,16.6C93.09,14.56 90.41,11.47 88.84,10.1C84.53,6.37 80.41,3.9 75.87,2.34C73.96,1.68 70.07,0.71 67.71,0.31C66.01,0.04 65.45,0 62.89,0C60.46,-0.01 59.72,0.04 58.2,0.27C51.54,1.3 47.04,2.94 41.85,6.21C36.7,9.46 32.11,14.39 29.11,19.89C26.49,24.7 24.9,29.87 24.42,35.13C24.21,37.27 24.35,41.95 24.66,43.99C25,46.22 25.62,48.7 26.48,51.2C27.24,53.42 27.33,54.08 27.01,54.58C26.89,54.75 26.01,55.7 25.05,56.69C19.77,62.08 15.44,67.9 12.12,74.02C8.69,80.38 4.77,89.52 3.08,95.21C2.77,96.21 2.43,97.34 2.28,97.74C1.92,98.76 1.14,101.95 0.85,103.52C0.72,104.25 0.5,105.3 0.35,105.87C0.02,107.17 -0.11,110.87 0.11,112.22C0.31,113.39 1.01,114.81 1.7,115.45C2.5,116.18 3.14,116.39 4.42,116.32C11.2,115.92 24.47,104.2 32.57,91.46C35.51,86.85 38.89,79.9 40.97,74.21C41.53,72.7 41.74,72.27 42.16,71.77C42.42,71.46 42.46,71.45 42.91,71.57C43.17,71.64 44.31,72.15 45.44,72.7C51.02,75.45 56.03,76.71 62.11,76.91C63.34,76.95 64.57,77.05 64.83,77.11C65.3,77.23 65.34,77.28 65.4,77.73C65.46,78.19 65.3,80.39 65.18,80.83C65.16,80.92 65.07,81.57 65.01,82.27C64.94,82.97 64.81,84.38 64.7,85.4C64.18,90.72 64.21,97.02 64.77,102C65.54,108.94 67.47,116.74 69.92,122.9C71.87,127.79 74.58,132.17 76.73,133.94C78.5,135.4 79.63,135.77 80.71,135.26C82.86,134.24 84.8,131.1 86.6,125.73Z " /></g><path id="星形 1" fill-rule="evenodd" style="fill:#E27881" transform="translate(149 119)  rotate(0 8.65625 8.65625)" opacity="1" d="M11.2,5.15L8.66,0L6.11,5.15L0.42,5.98L4.54,9.99L3.57,15.66L8.66,12.98L13.74,15.66L12.77,9.99L16.89,5.98L11.2,5.15Z " /></g></svg>