<svg xmlns="http://www.w3.org/2000/svg" xmlns:xlink="http://www.w3.org/1999/xlink" width="154" height="52" viewBox="0 0 154 52" fill="none"><g opacity="1" transform="translate(0 0)  rotate(0 76.5 26)"><path id="矩形 15" fill-rule="evenodd" style="fill:#CD4D5B" transform="translate(0 0)  rotate(0 30.6 26)" opacity="1" d="M0,52L61.2,52L61.2,0L0,0L0,52Z " /><path id="矩形 15" fill-rule="evenodd" style="fill:#CD4D5B" transform="translate(65.025 0)  rotate(0 17.85 26)" opacity="1" d="M0,52L35.7,52L35.7,0L0,0L0,52Z " /><path id="矩形 15" fill-rule="evenodd" style="fill:#CD4D5B" transform="translate(104.55 0)  rotate(0 10.8375 26)" opacity="1" d="M0,52L21.68,52L21.68,0L0,0L0,52Z " /><path id="矩形 15" fill-rule="evenodd" style="fill:#CD4D5B" transform="translate(130.05 0)  rotate(0 5.1 26)" opacity="1" d="M0,52L10.2,52L10.2,0L0,0L0,52Z " /><path id="矩形 15" fill-rule="evenodd" style="fill:#CD4D5B" transform="translate(146.625 0)  rotate(0 3.1875 26)" opacity="1" d="M0,52L6.38,52L6.38,0L0,0L0,52Z " /></g></svg>