<svg xmlns="http://www.w3.org/2000/svg" xmlns:xlink="http://www.w3.org/1999/xlink" width="277" height="277" viewBox="0 0 277 277" fill="none"><g opacity="1" transform="translate(0 0)  rotate(0 138.5 138.5)"><path id="圆形 1" fill-rule="evenodd" style="fill:#E27881" transform="translate(0 0)  rotate(0 138.5 138.5)" opacity="1" d="M138.5,0C62.01,0 0,62.01 0,138.5C0,214.99 62.01,277 138.5,277C214.99,277 277,214.99 277,138.5C277,62.01 214.99,0 138.5,0Z " /><g opacity="1" transform="translate(4.070787856712165 12.147352964077868)  rotate(0 130.41046455934824 129.3730093175702)"><path id=" " fill-rule="evenodd" style="fill:#F1E4A5" transform="translate(157.34305039636337 257.6320732277466)  rotate(170.76923076923072 0.5187265917602997 0.5187265917602997)" opacity="1" d="" /><path id="*" fill-rule="evenodd" style="fill:#F1E4A5" transform="translate(170.94047102276792 241.36027119875325)  rotate(161.5384615384615 3.137258426966292 3.034550561797753)" opacity="1" d="M1.66,6.07L3.16,4.3L4.61,6.07L5.43,5.49L4.24,3.53L6.27,2.67L5.96,1.72L3.83,2.24L3.64,0L2.63,0L2.45,2.26L0.32,1.72L0,2.67L2.02,3.53L0.84,5.49L1.66,6.07Z " /><path id=" " fill-rule="evenodd" style="fill:#F1E4A5" transform="translate(197.8587567651278 243.40414941541894)  rotate(152.30769230769226 0.5187265917602997 0.5187265917602997)" opacity="1" d="" /><path id="T" fill-rule="evenodd" style="fill:#F1E4A5" transform="translate(201.23012633278864 215.0324347889992)  rotate(143.07692307692304 5.0140112359550555 6.844078651685393)" opacity="1" d="M5.88,13.69L5.88,1.46L10.03,1.46L10.03,0L0,0L0,1.46L4.15,1.46L4.15,13.69L5.88,13.69Z " /><path id="I" fill-rule="evenodd" style="fill:#F1E4A5" transform="translate(219.9480082177463 202.07920953630983)  rotate(133.8461538461538 0.8590112359550564 6.844078651685393)" opacity="1" d="M1.72,13.69L1.72,0L0,0L0,13.69L1.72,13.69Z " /><path id="B" fill-rule="evenodd" style="fill:#F1E4A5" transform="translate(227.70176968481078 187.79927236296157)  rotate(124.61538461538458 4.771247191011236 6.844078651685393)" opacity="1" d="M4.05 0L0 0L0 13.69L4.35 13.69C7.41 13.69 9.54 12.36 9.54 9.67C9.54 7.81 8.38 6.72 6.76 6.41L6.76 6.31C8.05 5.9 8.76 4.71 8.76 3.34C8.76 0.93 6.82 0 4.05 0ZM1.72 5.81L1.72 1.36L3.83 1.36C5.98 1.36 7.06 1.96 7.06 3.57C7.06 4.97 6.11 5.81 3.75 5.81L1.72 5.81ZM4.11 12.31C6.46 12.31 7.84 11.47 7.84 9.62C7.84 7.92 6.52 7.15 4.11 7.15L1.72 7.15L1.72 12.31L4.11 12.31Z" /><path id="B" fill-rule="evenodd" style="fill:#F1E4A5" transform="translate(237.38041407883836 171.1746136609815)  rotate(115.38461538461536 4.771247191011236 6.844078651685393)" opacity="1" d="M9.54 9.67C9.54 12.36 7.41 13.69 4.35 13.69L0 13.69L0 0L4.05 0C6.82 0 8.76 0.93 8.76 3.34C8.76 4.71 8.05 5.9 6.76 6.31L6.76 6.41C8.38 6.72 9.54 7.81 9.54 9.67ZM7.06 3.57C7.06 1.96 5.98 1.36 3.83 1.36L1.72 1.36L1.72 5.81L3.75 5.81C6.11 5.81 7.06 4.97 7.06 3.57ZM7.84 9.62C7.84 7.92 6.52 7.15 4.11 7.15L1.72 7.15L1.72 12.31L4.11 12.31C6.46 12.31 7.84 11.47 7.84 9.62Z" /><path id="A" fill-rule="evenodd" style="fill:#F1E4A5" transform="translate(243.5643835029093 152.7692369838438)  rotate(106.15384615384613 5.6022471910112355 6.844078651685393)" opacity="1" d="M9.37 13.69L8.07 9.51L3.06 9.51L1.74 13.69L0 13.69L4.63 0L6.55 0L11.2 13.69L9.37 13.69ZM5.53 1.4C5.1 3.01 4.65 4.48 4.16 6.03L3.49 8.14L7.64 8.14L6.98 6.03C6.48 4.48 6.05 2.99 5.6 1.4L5.53 1.4Z" /><path id="R" fill-rule="evenodd" style="fill:#F1E4A5" transform="translate(248.23530206690506 134.3323196577991)  rotate(96.9230769230769 4.72456179775281 6.844078651685393)" opacity="1" d="M1.72 13.69L1.72 7.88L4.18 7.88L7.51 13.69L9.45 13.69L5.98 7.69C7.82 7.25 9.06 5.98 9.06 3.83C9.06 0.99 7.06 0 4.28 0L0 0L0 13.69L1.72 13.69ZM4.01 1.4C6.16 1.4 7.34 2.04 7.34 3.83C7.34 5.62 6.16 6.5 4.01 6.5L1.72 6.5L1.72 1.4L4.01 1.4Z" /><path id="D" fill-rule="evenodd" style="fill:#F1E4A5" transform="translate(248.85391331933488 114.80066581894422)  rotate(87.69230769230768 4.929977528089887 6.844078651685393)" opacity="1" d="M0 0L3.42 0C7.62 0 9.86 2.43 9.86 6.8C9.86 11.13 7.62 13.69 3.49 13.69L0 13.69L0 0ZM1.72 1.4L3.27 1.4C6.5 1.4 8.09 3.32 8.09 6.8C8.09 10.25 6.5 12.27 3.27 12.27L1.72 12.27L1.72 1.4Z" /><path id="A" fill-rule="evenodd" style="fill:#F1E4A5" transform="translate(245.85418115830095 95.6031995902721)  rotate(78.46153846153845 5.6022471910112355 6.844078651685393)" opacity="1" d="M1.74 13.69L3.06 9.51L8.07 9.51L9.37 13.69L11.2 13.69L6.55 0L4.63 0L0 13.69L1.74 13.69ZM4.16 6.03C4.65 4.48 5.1 3.01 5.53 1.4L5.6 1.4C6.05 2.99 6.48 4.48 6.98 6.03L7.64 8.14L3.49 8.14L4.16 6.03Z" /><path id="E" fill-rule="evenodd" style="fill:#F1E4A5" transform="translate(242.1463936612753 77.36302111236279)  rotate(69.2307692307692 4.042955056179776 6.844078651685393)" opacity="1" d="M1.72,1.46L7.88,1.46L7.88,0L0,0L0,13.69L8.09,13.69L8.09,12.21L1.72,12.21L1.72,7.23L6.91,7.23L6.91,5.75L1.72,5.75L1.72,1.46Z " /><path id="D" fill-rule="evenodd" style="fill:#F1E4A5" transform="translate(232.96995681642912 59.837951682181064)  rotate(59.99999999999997 4.929977528089887 6.844078651685393)" opacity="1" d="M9.86 6.8C9.86 11.13 7.62 13.69 3.49 13.69L0 13.69L0 0L3.42 0C7.62 0 9.86 2.43 9.86 6.8ZM1.72 12.27L1.72 1.4L3.27 1.4C6.5 1.4 8.09 3.32 8.09 6.8C8.09 10.25 6.5 12.27 3.27 12.27L1.72 12.27Z" /><path id=" " fill-rule="evenodd" style="fill:#F1E4A5" transform="translate(236.18118604623584 39.61821202831791)  rotate(50.769230769230745 0.5187265917602997 0.5187265917602997)" opacity="1" d="" /><path id="*" fill-rule="evenodd" style="fill:#F1E4A5" transform="translate(213.54165152726748 29.936950309442526)  rotate(41.53846153846152 3.137258426966292 3.034550561797753)" opacity="1" d="M2.02,3.53L0.84,5.49L1.66,6.07L3.16,4.3L4.61,6.07L5.43,5.49L4.24,3.53L6.27,2.67L5.96,1.72L3.83,2.24L3.64,0L2.63,0L2.45,2.26L0.32,1.72L0,2.67L2.02,3.53Z " /><path id=" " fill-rule="evenodd" style="fill:#F1E4A5" transform="translate(203.60158939726844 11.64454296686046)  rotate(32.30769230769229 0.5187265917602997 0.5187265917602997)" opacity="1" d="" /><path id="T" fill-rule="evenodd" style="fill:#F1E4A5" transform="translate(176.0802676035191 9.529649799927789)  rotate(23.076923076923066 5.0140112359550555 6.844078651685393)" opacity="1" d="M5.88,13.69L5.88,1.46L10.03,1.46L10.03,0L0,0L0,1.46L4.15,1.46L4.15,13.69L5.88,13.69Z " /><path id="I" fill-rule="evenodd" style="fill:#F1E4A5" transform="translate(161.73600453126923 3.3944367615868947)  rotate(13.84615384615384 0.8590112359550564 6.844078651685393)" opacity="1" d="M1.72,13.69L1.72,0L0,0L0,13.69L1.72,13.69Z " /><path id="B" fill-rule="evenodd" style="fill:#F1E4A5" transform="translate(139.6239815085872 0.4313552202208282)  rotate(4.615384615384585 4.771247191011236 6.844078651685393)" opacity="1" d="M8.76 3.34C8.76 4.71 8.05 5.9 6.76 6.31L6.76 6.41C8.38 6.72 9.54 7.81 9.54 9.67C9.54 12.36 7.41 13.69 4.35 13.69L0 13.69L0 0L4.05 0C6.82 0 8.76 0.93 8.76 3.34ZM1.72 1.36L3.83 1.36C5.98 1.36 7.06 1.96 7.06 3.57C7.06 4.97 6.11 5.81 3.75 5.81L1.72 5.81L1.72 1.36ZM1.72 12.31L4.11 12.31C6.46 12.31 7.84 11.47 7.84 9.62C7.84 7.92 6.52 7.15 4.11 7.15L1.72 7.15L1.72 12.31Z" /><path id="B" fill-rule="evenodd" style="fill:#F1E4A5" transform="translate(120.38728254641272 0.3617326517873458)  rotate(-4.615384615384642 4.771247191011236 6.844078651685393)" opacity="1" d="M4.05 0C6.82 0 8.76 0.93 8.76 3.34C8.76 4.71 8.05 5.9 6.76 6.31L6.76 6.41C8.38 6.72 9.54 7.81 9.54 9.67C9.54 12.36 7.41 13.69 4.35 13.69L0 13.69L0 0L4.05 0ZM3.83 1.36L1.72 1.36L1.72 5.81L3.75 5.81C6.11 5.81 7.06 4.97 7.06 3.57C7.06 1.96 5.98 1.36 3.83 1.36ZM4.11 7.15L1.72 7.15L1.72 12.31L4.11 12.31C6.46 12.31 7.84 11.47 7.84 9.62C7.84 7.92 6.52 7.15 4.11 7.15Z" /><path id="A" fill-rule="evenodd" style="fill:#F1E4A5" transform="translate(100.10927406575438 3.4892792623395925)  rotate(-13.846153846153868 5.6022471910112355 6.844078651685393)" opacity="1" d="M1.74 13.69L3.06 9.51L8.07 9.51L9.37 13.69L11.2 13.69L6.55 0L4.63 0L0 13.69L1.74 13.69ZM7.64 8.14L3.49 8.14L4.16 6.03C4.65 4.48 5.1 3.01 5.53 1.4L5.6 1.4C6.05 2.99 6.48 4.48 6.98 6.03L7.64 8.14Z" /><path id="R" fill-rule="evenodd" style="fill:#F1E4A5" transform="translate(83.12350410181584 9.422701637025511)  rotate(-23.076923076923094 4.72456179775281 6.844078651685393)" opacity="1" d="M1.72 7.88L4.18 7.88L7.51 13.69L9.45 13.69L5.98 7.69C7.82 7.25 9.06 5.98 9.06 3.83C9.06 0.99 7.06 0 4.28 0L0 0L0 13.69L1.72 13.69L1.72 7.88ZM4.01 6.5L1.72 6.5L1.72 1.4L4.01 1.4C6.16 1.4 7.34 2.04 7.34 3.83C7.34 5.62 6.16 6.5 4.01 6.5Z" /><path id="D" fill-rule="evenodd" style="fill:#F1E4A5" transform="translate(65.59116647772316 18.47490025597336)  rotate(-32.30769230769232 4.929977528089887 6.844078651685393)" opacity="1" d="M3.42 0C7.62 0 9.86 2.43 9.86 6.8C9.86 11.13 7.62 13.69 3.49 13.69L0 13.69L0 0L3.42 0ZM8.09 6.8C8.09 10.25 6.5 12.27 3.27 12.27L1.72 12.27L1.72 1.4L3.27 1.4C6.5 1.4 8.09 3.32 8.09 6.8Z" /><path id="A" fill-rule="evenodd" style="fill:#F1E4A5" transform="translate(49.4571346215344 30.089275020030133)  rotate(-41.53846153846155 5.6022471910112355 6.844078651685393)" opacity="1" d="M3.06 9.51L8.07 9.51L9.37 13.69L11.2 13.69L6.55 0L4.63 0L0 13.69L1.74 13.69L3.06 9.51ZM3.49 8.14L4.16 6.03C4.65 4.48 5.1 3.01 5.53 1.4L5.6 1.4C6.05 2.99 6.48 4.48 6.98 6.03L7.64 8.14L3.49 8.14Z" /><path id="E" fill-rule="evenodd" style="fill:#F1E4A5" transform="translate(37.85350864086276 43.77078902392867)  rotate(-50.769230769230774 4.042955056179776 6.844078651685393)" opacity="1" d="M6.91,7.23L6.91,5.75L1.72,5.75L1.72,1.46L7.88,1.46L7.88,0L0,0L0,13.69L8.09,13.69L8.09,12.21L1.72,12.21L1.72,7.23L6.91,7.23Z " /><path id="D" fill-rule="evenodd" style="fill:#F1E4A5" transform="translate(25.934038025797054 59.71216716847804)  rotate(-60.000000000000014 4.929977528089887 6.844078651685393)" opacity="1" d="M0 13.69L0 0L3.42 0C7.62 0 9.86 2.43 9.86 6.8C9.86 11.13 7.62 13.69 3.49 13.69L0 13.69ZM3.27 12.27L1.72 12.27L1.72 1.4L3.27 1.4C6.5 1.4 8.09 3.32 8.09 6.8C8.09 10.25 6.5 12.27 3.27 12.27Z" /><path id=" " fill-rule="evenodd" style="fill:#F1E4A5" transform="translate(7.956576045459567 80.34931436823881)  rotate(-69.23076923076924 0.5187265917602997 0.5187265917602997)" opacity="1" d="" /><path id="*" fill-rule="evenodd" style="fill:#F1E4A5" transform="translate(9.143094432405347 98.75490620599484)  rotate(-78.46153846153847 3.137258426966292 3.034550561797753)" opacity="1" d="M2.63,0L2.45,2.26L0.32,1.72L0,2.67L2.02,3.53L0.84,5.49L1.66,6.07L3.16,4.3L4.61,6.07L5.43,5.49L4.24,3.53L6.27,2.67L5.96,1.72L3.83,2.24L3.64,0L2.63,0Z " /><path id=" " fill-rule="evenodd" style="fill:#F1E4A5" transform="translate(0.020466325662607865 122.5509072420236)  rotate(-87.69230769230771 0.5187265917602997 0.5187265917602997)" opacity="1" d="" /><path id="T" fill-rule="evenodd" style="fill:#F1E4A5" transform="translate(10.684564619166697 134.06145885560088)  rotate(-96.92307692307693 5.0140112359550555 6.844078651685393)" opacity="1" d="M5.88,13.69L5.88,1.46L10.03,1.46L10.03,0L0,0L0,1.46L4.15,1.46L4.15,13.69L5.88,13.69Z " /><path id="I" fill-rule="evenodd" style="fill:#F1E4A5" transform="translate(18.775945806458843 153.14989714663122)  rotate(-106.15384615384616 0.8590112359550564 6.844078651685393)" opacity="1" d="M1.72,13.69L1.72,0L0,0L0,13.69L1.72,13.69Z " /><path id="B" fill-rule="evenodd" style="fill:#F1E4A5" transform="translate(21.397499496907766 170.39291586134541)  rotate(-115.38461538461539 4.771247191011236 6.844078651685393)" opacity="1" d="M9.54 9.67C9.54 7.81 8.38 6.72 6.76 6.41L6.76 6.31C8.05 5.9 8.76 4.71 8.76 3.34C8.76 0.93 6.82 0 4.05 0L0 0L0 13.69L4.35 13.69C7.41 13.69 9.54 12.36 9.54 9.67ZM1.72 5.81L3.75 5.81C6.11 5.81 7.06 4.97 7.06 3.57C7.06 1.96 5.98 1.36 3.83 1.36L1.72 1.36L1.72 5.81ZM1.72 12.31L1.72 7.15L4.11 7.15C6.52 7.15 7.84 7.92 7.84 9.62C7.84 11.47 6.46 12.31 4.11 12.31L1.72 12.31Z" /><path id="B" fill-rule="evenodd" style="fill:#F1E4A5" transform="translate(30.955554065054752 187.08719713175932)  rotate(-124.61538461538461 4.771247191011236 6.844078651685393)" opacity="1" d="M9.54 9.67C9.54 7.81 8.38 6.72 6.76 6.41L6.76 6.31C8.05 5.9 8.76 4.71 8.76 3.34C8.76 0.93 6.82 0 4.05 0L0 0L0 13.69L4.35 13.69C7.41 13.69 9.54 12.36 9.54 9.67ZM1.72 5.81L1.72 1.36L3.83 1.36C5.98 1.36 7.06 1.96 7.06 3.57C7.06 4.97 6.11 5.81 3.75 5.81L1.72 5.81ZM1.72 7.15L1.72 12.31L4.11 12.31C6.46 12.31 7.84 11.47 7.84 9.62C7.84 7.92 6.52 7.15 4.11 7.15L1.72 7.15Z" /><path id="A" fill-rule="evenodd" style="fill:#F1E4A5" transform="translate(42.556593121642116 202.36502719834468)  rotate(-133.84615384615387 5.6022471910112355 6.844078651685393)" opacity="1" d="M11.2 13.69L9.37 13.69L8.07 9.51L3.06 9.51L1.74 13.69L0 13.69L4.63 0L6.55 0L11.2 13.69ZM7.64 8.14L6.98 6.03C6.48 4.48 6.05 2.99 5.6 1.4L5.53 1.4C5.1 3.01 4.65 4.48 4.16 6.03L3.49 8.14L7.64 8.14Z" /><path id="R" fill-rule="evenodd" style="fill:#F1E4A5" transform="translate(57.504500701360136 214.8685221497034)  rotate(-143.0769230769231 4.72456179775281 6.844078651685393)" opacity="1" d="M0 0L0 13.69L1.72 13.69L1.72 7.88L4.18 7.88L7.51 13.69L9.45 13.69L5.98 7.69C7.82 7.25 9.06 5.98 9.06 3.83C9.06 0.99 7.06 0 4.28 0L0 0ZM1.72 1.4L4.01 1.4C6.16 1.4 7.34 2.04 7.34 3.83C7.34 5.62 6.16 6.5 4.01 6.5L1.72 6.5L1.72 1.4Z" /><path id="D" fill-rule="evenodd" style="fill:#F1E4A5" transform="translate(73.80197988201196 225.34797736961056)  rotate(-152.30769230769232 4.929977528089887 6.844078651685393)" opacity="1" d="M3.49 13.69L0 13.69L0 0L3.42 0C7.62 0 9.86 2.43 9.86 6.8C9.86 11.13 7.62 13.69 3.49 13.69ZM3.27 12.27L1.72 12.27L1.72 1.4L3.27 1.4C6.5 1.4 8.09 3.32 8.09 6.8C8.09 10.25 6.5 12.27 3.27 12.27Z" /><path id="A" fill-rule="evenodd" style="fill:#F1E4A5" transform="translate(90.9189349104706 232.93106883422556)  rotate(-161.53846153846155 5.6022471910112355 6.844078651685393)" opacity="1" d="M11.2 13.69L6.55 0L4.63 0L0 13.69L1.74 13.69L3.06 9.51L8.07 9.51L9.37 13.69L11.2 13.69ZM5.6 1.4C6.05 2.99 6.48 4.48 6.98 6.03L7.64 8.14L3.49 8.14L4.16 6.03C4.65 4.48 5.1 3.01 5.53 1.4L5.6 1.4Z" /><path id="E" fill-rule="evenodd" style="fill:#F1E4A5" transform="translate(110.90822479266218 237.48973330823637)  rotate(-170.76923076923077 4.042955056179776 6.844078651685393)" opacity="1" d="M1.72,7.23L6.91,7.23L6.91,5.75L1.72,5.75L1.72,1.46L7.88,1.46L7.88,0L0,0L0,13.69L8.09,13.69L8.09,12.21L1.72,12.21L1.72,7.23Z " /><path id="D" fill-rule="evenodd" style="fill:#F1E4A5" transform="translate(129.34306483684352 239.0734245938688)  rotate(-180 4.929977528089887 6.844078651685393)" opacity="1" d="M3.42 0C7.62 0 9.86 2.43 9.86 6.8C9.86 11.13 7.62 13.69 3.49 13.69L0 13.69L0 0L3.42 0ZM3.27 12.27L1.72 12.27L1.72 1.4L3.27 1.4C6.5 1.4 8.09 3.32 8.09 6.8C8.09 10.25 6.5 12.27 3.27 12.27Z" /></g></g></svg>