<svg xmlns="http://www.w3.org/2000/svg" xmlns:xlink="http://www.w3.org/1999/xlink" width="124" height="312" viewBox="0 0 124 312" fill="none"><g opacity="1" transform="translate(0 0)  rotate(0 62 156)"><path id="矩形 11" fill-rule="evenodd" style="fill:#EEECEE" transform="translate(0 287)  rotate(0 62 12.5)" opacity="1" d="M0,25L124,25L124,0L0,0L0,25Z " /><path id="矩形 11" fill-rule="evenodd" style="fill:#EEECEE" transform="translate(0 241)  rotate(0 62 12.5)" opacity="1" d="M0,25L124,25L124,0L0,0L0,25Z " /><path id="矩形 11" fill-rule="evenodd" style="fill:#EEECEE" transform="translate(0 195)  rotate(0 35.5 12.5)" opacity="1" d="M0,25L71,25L71,0L0,0L0,25Z " /><path id="矩形 11" fill-rule="evenodd" style="fill:#EEECEE" transform="translate(0 156)  rotate(0 35.5 12.5)" opacity="1" d="M0,25L71,25L71,0L0,0L0,25Z " /><path id="矩形 11" fill-rule="evenodd" style="fill:#EEECEE" transform="translate(0 117)  rotate(0 35.5 12.5)" opacity="1" d="M0,25L71,25L71,0L0,0L0,25Z " /><rect  id="矩形 11" style="stroke:#EEECEE; stroke-width:2; stroke-opacity:1; stroke-dasharray:0 0" transform="translate(0 78)  rotate(0 35.5 12.5)" x="1" y="1" rx="0"  width="69" height="23" /><rect  id="矩形 11" style="stroke:#EEECEE; stroke-width:2; stroke-opacity:1; stroke-dasharray:0 0" transform="translate(0 39)  rotate(0 35.5 12.5)" x="1" y="1" rx="0"  width="69" height="23" /><rect  id="矩形 11" style="stroke:#EEECEE; stroke-width:2; stroke-opacity:1; stroke-dasharray:0 0" transform="translate(0 0)  rotate(0 35.5 12.5)" x="1" y="1" rx="0"  width="69" height="23" /><path id="矩形 12" fill-rule="evenodd" style="fill:#EEECEE" transform="translate(95 0)  rotate(0 14 110)" opacity="1" d="M0,220L28,220L28,0L0,0L0,220Z " /></g></svg>